<svg width="25" height="25" viewBox="0 0 30 30" xmlns="http://www.w3.org/2000/svg">
  <defs>
    <linearGradient id="Gradient">
      <stop offset="0%" stop-color="#22E1FF"/>
      <stop offset="50%" stop-color="#1D8FE1"/>
      <stop offset="100%" stop-color="#625EB1"/>
    </linearGradient>
  </defs>
  <path
    d="M20 5H22.5C23.1631 5 23.7989 5.26339 24.2678 5.73223C24.7366 6.20107 25 6.83696 25 7.5V25C25 25.663 24.7366 26.2989 24.2678 26.7678C23.7989 27.2366 23.1631 27.5 22.5 27.5H7.50002C6.83698 27.5 6.2011 27.2366 5.73226 26.7678C5.26341 26.2989 5.00002 25.663 5.00002 25V7.5C5.00002 6.83696 5.26341 6.20107 5.73226 5.73223C6.2011 5.26339 6.83698 5 7.50002 5H10" fill="url(#Gradient)"
  />
  <path
    d="M20 5H22.5C23.1631 5 23.7989 5.26339 24.2678 5.73223C24.7366 6.20107 25 6.83696 25 7.5V25C25 25.663 24.7366 26.2989 24.2678 26.7678C23.7989 27.2366 23.1631 27.5 22.5 27.5H7.50002C6.83698 27.5 6.2011 27.2366 5.73226 26.7678C5.26341 26.2989 5.00002 25.663 5.00002 25V7.5C5.00002 6.83696 5.26341 6.20107 5.73226 5.73223C6.2011 5.26339 6.83698 5 7.50002 5H10"
    stroke="#222222" fill="url(#Gradient)" stroke-width="2" stroke-linecap="round" stroke-linejoin="round"/>
  <path
    d="M18.75 2.5H11.25C10.5596 2.5 9.99998 3.05964 9.99998 3.75V6.25C9.99998 6.94036 10.5596 7.5 11.25 7.5H18.75C19.4403 7.5 20 6.94036 20 6.25V3.75C20 3.05964 19.4403 2.5 18.75 2.5Z"
    stroke="#222222" fill="url(#Gradient)" stroke-width="2" stroke-linecap="round" stroke-linejoin="round"/>
</svg>
