<svg xmlns="http://www.w3.org/2000/svg" xmlns:xlink="http://www.w3.org/1999/xlink" width="319" height="209" fill="none" xmlns:v="https://vecta.io/nano"><style><![CDATA[.B{fill:#263238}.C{fill:#ff725e}.D{fill:#e0e0e0}.E{fill:#fff}.F{fill:#f5f5f5}.G{fill:#ffbe9d}.H{fill:#eb996e}.I{fill:#ebebeb}.J{fill:#455a64}.K{opacity:.16}.L{opacity:.36}.M{fill:#b78876}.N{fill:#a36957}]]></style><path d="M306.704 168.603h-60.68v10.383h60.68v-10.383zm-13.952-11.575c.371-.757 1.01-1.354 1.796-1.677s1.663-.35 2.468-.076a3.23 3.23 0 0 1 1.093-1.478c.5-.378 1.099-.605 1.727-.655s1.256.081 1.81.376 1.011.742 1.316 1.288a2.29 2.29 0 0 1 1.269.162c.399.173.739.456.98.815s.373.779.38 1.211a2.23 2.23 0 0 1-.341 1.221" class="D"/><path d="M299.574 166.853a8.13 8.13 0 0 1-3.088-.609c-.978-.402-1.867-.991-2.615-1.734s-1.341-1.624-1.745-2.594-.609-2.01-.606-3.059v-1.875h16.156v1.875c0 1.053-.21 2.094-.618 3.066s-1.004 1.854-1.757 2.597a8.07 8.07 0 0 1-2.628 1.731c-.983.401-2.036.605-3.099.602z" class="F"/><g class="D"><path d="M285.442 166.853h-4.544l-1.682-8.53h7.974l-1.748 8.53z"/><path d="M311.689 166.853h-71.526v3.499h71.526v-3.499z"/></g><path d="M252.567 166.853h-4.544l-1.677-8.53h7.974l-1.753 8.53z" class="I"/><path d="M281.741 166.853h-4.543l-1.677-8.53h7.973l-1.753 8.53z" class="F"/><path d="M259.503 166.853v-17.708c-.001-.325.063-.647.188-.947s.309-.573.541-.803.508-.413.811-.537.628-.189.956-.189h.105v-4.103h3.202v4.005c.329 0 .654.064.957.188a2.51 2.51 0 0 1 .811.537 2.48 2.48 0 0 1 .54.803c.126.301.19.623.189.948v17.82l-8.3-.014z" class="D"/><path d="M246.346 170.347h-1.251v32.049h1.251v-32.049zm61.301 0h-1.251v32.049h1.251v-32.049zm-31.283 5.848c.937 0 1.696-.752 1.696-1.679s-.759-1.679-1.696-1.679-1.696.752-1.696 1.679.759 1.679 1.696 1.679z" class="F"/><path d="M89.386 114.081H44.463v84.062h44.923v-84.062z" class="D"/><path d="M76.054 114.081H31.131v84.062h44.923v-84.062z" class="F"/><use xlink:href="#B" class="D"/><path d="M46.41 118.292h14.635v.333c0 .616-.247 1.206-.687 1.641s-1.036.68-1.658.68H48.75c-.622 0-1.218-.244-1.658-.68s-.687-1.025-.687-1.641v-.333h.005z" class="I"/><path d="M72.728 148.311H34.187v-13.324h38.541v13.324zm-38.086-.469h37.613v-12.386H34.661l-.019 12.386z" class="D"/><use xlink:href="#C" class="I"/><use xlink:href="#B" y="33.85" class="D"/><use xlink:href="#C" y="16.925" class="I"/><use xlink:href="#B" y="50.775" class="D"/><g class="I"><use xlink:href="#C" y="33.85"/><path d="M77.935 110.934H29.136v4.188h48.798v-4.188z"/></g><path d="M92.603 110.934H77.93v4.188h14.673v-4.188zM33.49 198.143h-2.359v4.296h2.359v-4.296zm14.588 0h-2.359v4.296h2.359v-4.296zm26.64 0h-2.359v4.296h2.359v-4.296zm13.322 0h-2.359v4.296h2.359v-4.296zm217.395-91.96c-.16-.129-.307-.272-.441-.426-.388-.438-.707-.932-.947-1.464-.393-.848-.601-1.768-.612-2.701-.007-1.243.357-2.46 1.047-3.498a25.55 25.55 0 0 1 2.9-3.386 13.52 13.52 0 0 0 1.506-1.942c.469-.723.78-1.534.915-2.382a4.89 4.89 0 0 0-.412-2.626 10.99 10.99 0 0 0-1.512-2.406l-1.847-2.345a11.11 11.11 0 0 1-1.483-2.711 6.74 6.74 0 0 1-.408-3.067 5.23 5.23 0 0 1 1.213-2.753c.638-.778 1.554-1.282 2.559-1.407a2.27 2.27 0 0 1 1.421.286 1.52 1.52 0 0 1 .512.524 1.49 1.49 0 0 1 .203.7 1.31 1.31 0 0 1-.222.678 1.33 1.33 0 0 1-.545.466 1.8 1.8 0 0 1-1.346.131c-.808-.293-1.506-.825-1.999-1.524a8.82 8.82 0 0 1-1.72-4.089 13.06 13.06 0 0 1-.028-3.667c.114-.915.28-1.823.497-2.72l.431-1.693.128-.436a.88.88 0 0 1 .048-.15c-.003.052-.01.104-.024.155l-.104.446-.384 1.698a24.98 24.98 0 0 0-.474 2.715 13.1 13.1 0 0 0 .066 3.625 8.57 8.57 0 0 0 1.706 3.991 4.04 4.04 0 0 0 1.895 1.444 1.58 1.58 0 0 0 1.185-.117c.182-.084.339-.216.452-.381s.18-.358.192-.557c-.01-.209-.071-.412-.178-.592a1.28 1.28 0 0 0-.438-.44 2.07 2.07 0 0 0-1.274-.248c-.941.12-1.8.593-2.398 1.322a4.99 4.99 0 0 0-1.156 2.622c-.096 1.002.04 2.013.398 2.955a11.1 11.1 0 0 0 1.45 2.654l1.843 2.345c.613.752 1.129 1.578 1.535 2.457a5.12 5.12 0 0 1 .417 2.748 6.28 6.28 0 0 1-.948 2.467c-.451.701-.966 1.358-1.539 1.965a25.73 25.73 0 0 0-2.905 3.344 6.19 6.19 0 0 0-1.056 3.405c-.002.92.19 1.83.564 2.673a6.06 6.06 0 0 0 .914 1.472l.403.441z" class="D"/><g class="F"><path d="M308.723 31.327c-6.349-.844-11.02 2.448-13.105 7.466s-1.061 10.903 1.583 15.659c1.468 2.645 3.667 5.159 6.632 5.792 2.445.497 5.018-.422 6.96-1.97s3.317-3.667 4.506-5.843c2.103-3.874 3.359-8.254 2.871-12.624-.427-3.827-4.392-7.911-9.476-8.479"/><path d="M304.876 59.831c-.232.324-.744 1.459-.948 1.815-.053.078-.088.167-.103.26s-.009.188.018.279c.059.088.147.153.248.185a.48.48 0 0 0 .311-.007c.198-.085.371-.219.502-.389a.61.61 0 0 0 .257.413.62.62 0 0 0 .231.097c.083.016.168.015.25-.003s.161-.053.229-.102.125-.112.167-.184.069-.152.079-.235.001-.167-.024-.247a1.06 1.06 0 0 0 .474.408c.204.061.474-.047.474-.258a.52.52 0 0 0-.161-.356l-1.256-1.562"/></g><path d="M10.929 164.401c-.158-.131-.305-.274-.441-.427-.388-.44-.707-.935-.948-1.468a6.59 6.59 0 0 1-.606-2.696 6.24 6.24 0 0 1 1.028-3.485c.865-1.212 1.835-2.346 2.9-3.391.56-.599 1.065-1.247 1.507-1.936.47-.724.78-1.537.91-2.387a4.94 4.94 0 0 0-.407-2.627 11.47 11.47 0 0 0-1.511-2.401l-1.848-2.345c-.62-.839-1.119-1.759-1.483-2.734-.372-.976-.511-2.024-.407-3.062.123-1.015.545-1.973 1.213-2.753.637-.776 1.551-1.28 2.554-1.407a2.28 2.28 0 0 1 1.421.291c.211.131.387.31.512.524s.195.454.204.7c-.011.242-.089.476-.224.677a1.34 1.34 0 0 1-.544.467 1.83 1.83 0 0 1-1.35.127c-.806-.293-1.502-.823-1.995-1.519a8.74 8.74 0 0 1-1.696-4.085 13.23 13.23 0 0 1-.033-3.663c.119-.912.288-1.817.507-2.71l.436-1.693.123-.437a.56.56 0 0 1 .052-.145.65.65 0 0 1-.029.155c0 .112-.057.258-.099.441l-.388 1.702a26.06 26.06 0 0 0-.474 2.715 13.4 13.4 0 0 0 .066 3.621 8.65 8.65 0 0 0 1.71 3.995c.467.661 1.129 1.164 1.895 1.44a1.59 1.59 0 0 0 1.189-.117c.183-.084.339-.216.453-.381a1.1 1.1 0 0 0 .192-.557 1.25 1.25 0 0 0-.177-.59 1.26 1.26 0 0 0-.438-.437c-.386-.222-.837-.309-1.279-.249-.94.121-1.797.592-2.397 1.318a5.02 5.02 0 0 0-1.151 2.626 6.55 6.55 0 0 0 .398 2.955c.359.946.846 1.839 1.45 2.654l1.843 2.345c.615.752 1.13 1.577 1.535 2.457a5.17 5.17 0 0 1 .417 2.744c-.136.881-.459 1.723-.948 2.471a13.35 13.35 0 0 1-1.535 1.918c-1.062 1.032-2.032 2.152-2.899 3.349a6.11 6.11 0 0 0-1.056 3.404 6.6 6.6 0 0 0 .559 2.659 6.19 6.19 0 0 0 .914 1.473l.379.474z" class="D"/><g class="F"><path d="M14.217 89.54c-6.349-.844-11.02 2.453-13.104 7.466s-1.061 10.908 1.582 15.658c1.469 2.645 3.667 5.187 6.633 5.792 2.44.497 5.017-.422 6.955-1.97s3.316-3.667 4.51-5.838c2.099-3.878 3.354-8.254 2.871-12.629-.426-3.827-4.392-7.907-9.475-8.479"/><path d="M10.351 118.048c-.237.324-.744 1.454-.948 1.815a.62.62 0 0 0-.081.539c.059.088.147.153.248.186s.211.029.311-.007c.196-.089.369-.222.502-.39a.63.63 0 0 0 .274.4c.141.093.314.126.479.093.162-.044.3-.15.383-.294a.62.62 0 0 0 .062-.475 1.07 1.07 0 0 0 .474.403c.204.066.474-.042.474-.253a.57.57 0 0 0-.161-.361l-1.232-1.543"/></g><path d="M272.659 62.729a1.58 1.58 0 0 1-.246-.596c-.117-.616.001-1.252.332-1.787.748-1.496 3.681-2.303 6.215-.779a1.93 1.93 0 0 1 .64.938c.065.193.09.397.075.6a1.52 1.52 0 0 1-.165.582 1.37 1.37 0 0 1-.438.46c-.18.117-.385.191-.6.216-.431.051-.869-.01-1.269-.178a4.52 4.52 0 0 1-1.986-1.843c-.456-.801-.652-1.721-.563-2.636.076-1.001.536-1.935 1.284-2.612a4.76 4.76 0 0 1 2.804-1.229 4.27 4.27 0 0 1 1.592.15 2.8 2.8 0 0 1 1.398.839 1.52 1.52 0 0 1 .374.769 1.06 1.06 0 0 1-.032.445 1.09 1.09 0 0 1-.209.395 1.9 1.9 0 0 1-.738.451 1.92 1.92 0 0 1-.864.079c-1.097-.139-2.112-.65-2.871-1.448a4.7 4.7 0 0 1-1.288-2.923 4.46 4.46 0 0 1 .947-2.884 4.81 4.81 0 0 1 2.402-1.688c.453-.156.935-.216 1.413-.177a3.45 3.45 0 0 1 1.363.406c.401.246.709.615.877 1.05.085.212.125.438.117.666a1.63 1.63 0 0 1-.164.656c-.222.367-.551.657-.944.834a2.12 2.12 0 0 1-1.255.151 2.81 2.81 0 0 1-1.047-.493 2.77 2.77 0 0 1-.753-.872c-.358-.596-.551-1.276-.559-1.97-.009-.615.107-1.226.341-1.796.368-.913.985-1.706 1.781-2.293a4.34 4.34 0 0 1 1.687-.755c.212-.045.428-.07.644-.075 0 0-.222.028-.63.122a4.45 4.45 0 0 0-1.644.783c-.356.27-.675.585-.947.938-.33.404-.591.859-.773 1.346a4.51 4.51 0 0 0-.312 1.745 3.83 3.83 0 0 0 .549 1.876c.177.316.418.592.708.81a2.61 2.61 0 0 0 .979.456 1.91 1.91 0 0 0 1.132-.136c.354-.159.651-.423.848-.755.153-.381.161-.804.021-1.19s-.416-.708-.779-.906c-.395-.21-.83-.336-1.277-.37a3.25 3.25 0 0 0-1.319.173c-.911.289-1.708.853-2.279 1.613a4.19 4.19 0 0 0-.891 2.734 4.48 4.48 0 0 0 1.223 2.76 4.57 4.57 0 0 0 2.71 1.376 1.7 1.7 0 0 0 .75-.062 1.68 1.68 0 0 0 .647-.379c.075-.09.13-.194.162-.307a.82.82 0 0 0 .023-.345 1.31 1.31 0 0 0-.313-.647 2.58 2.58 0 0 0-1.283-.764c-.488-.139-.997-.189-1.502-.145a4.56 4.56 0 0 0-2.663 1.168 3.71 3.71 0 0 0-1.218 2.457 4.25 4.25 0 0 0 .525 2.507 4.31 4.31 0 0 0 1.873 1.765 2.29 2.29 0 0 0 1.165.169 1.18 1.18 0 0 0 .519-.176 1.15 1.15 0 0 0 .381-.391c.083-.159.133-.334.147-.512a1.32 1.32 0 0 0-.066-.529 1.74 1.74 0 0 0-.573-.849c-.542-.394-1.179-.64-1.848-.713a6.13 6.13 0 0 0-1.8-.028 3.25 3.25 0 0 0-1.349.452c-.41.248-.758.584-1.02.983-.328.514-.458 1.129-.365 1.73a3.1 3.1 0 0 0 .194.586zM142.041 173.001a1.63 1.63 0 0 1-.645-.037c-.61-.167-1.136-.551-1.478-1.079-1.037-1.317-.474-4.281 2-5.876a1.91 1.91 0 0 1 1.127-.164 1.55 1.55 0 0 1 .577.195c.177.102.332.238.456.401a1.36 1.36 0 0 1 .161 1.219c-.143.405-.389.767-.715 1.05-.728.572-1.614.909-2.541.966s-1.849-.169-2.642-.647c-.876-.506-1.524-1.322-1.815-2.284a4.67 4.67 0 0 1 .104-3.034c.189-.497.47-.955.829-1.35a2.81 2.81 0 0 1 1.374-.882c.282-.082.581-.082.863 0 .144.047.278.123.392.223a1.11 1.11 0 0 1 .271.359c.095.274.125.567.086.856a1.86 1.86 0 0 1-.309.804 4.77 4.77 0 0 1-2.567 1.923c-1.055.327-2.192.283-3.218-.127-.961-.426-1.742-1.169-2.212-2.101-.459-.886-.624-1.891-.474-2.875a3.37 3.37 0 0 1 .456-1.336c.245-.409.574-.762.965-1.037a2.18 2.18 0 0 1 1.336-.324 1.69 1.69 0 0 1 .656.19c.203.108.382.255.524.434a2.07 2.07 0 0 1 .346 1.204c-.012.427-.156.84-.412 1.183-.247.299-.555.544-.903.717a2.83 2.83 0 0 1-1.12.292 4.07 4.07 0 0 1-2.037-.38 4.65 4.65 0 0 1-1.483-1.084 5.19 5.19 0 0 1-1.308-2.588c-.114-.608-.097-1.233.052-1.834.051-.208.122-.411.213-.605 0 0-.071.211-.165.614-.125.596-.125 1.21 0 1.806a5.08 5.08 0 0 0 .426 1.238c.224.47.523.9.886 1.276.41.435.903.787 1.45 1.036.612.276 1.286.391 1.956.333a2.62 2.62 0 0 0 1.049-.269 2.6 2.6 0 0 0 .846-.669 1.87 1.87 0 0 0 .053-2.153c-.279-.303-.661-.495-1.073-.539a1.71 1.71 0 0 0-1.164.3c-.363.261-.667.593-.893.977a3.17 3.17 0 0 0-.419 1.251c-.133.936.032 1.891.474 2.729.447.883 1.188 1.585 2.099 1.989.97.385 2.046.427 3.044.118a4.53 4.53 0 0 0 2.432-1.816 1.64 1.64 0 0 0 .272-.694c.036-.248.014-.502-.063-.741a.83.83 0 0 0-.512-.469 1.35 1.35 0 0 0-.725 0 2.57 2.57 0 0 0-1.255.807 4.1 4.1 0 0 0-.782 1.275c-.355.924-.392 1.938-.104 2.884a3.76 3.76 0 0 0 1.701 2.158 4.37 4.37 0 0 0 2.509.626c.881-.049 1.726-.362 2.423-.898.3-.262.528-.594.663-.966a1.16 1.16 0 0 0-.128-1.051c-.108-.143-.243-.263-.399-.353a1.35 1.35 0 0 0-.506-.172 1.79 1.79 0 0 0-1.028.14 3.83 3.83 0 0 0-1.45 1.337c-.351.485-.625 1.022-.81 1.59-.166.448-.229.927-.183 1.401a3.16 3.16 0 0 0 .448 1.342 2.58 2.58 0 0 0 1.422 1.084c.195.053.395.089.597.107zm-.716-99.683a.36.36 0 0 1 0-.131l.095-.375c.113-.482.195-.971.246-1.463a10.95 10.95 0 0 0-.772-5.346 7.94 7.94 0 0 0-2.113-3.058 4.03 4.03 0 0 0-1.852-.886c-.721-.147-1.471-.037-2.118.309a1.86 1.86 0 0 0-.768.769 1.05 1.05 0 0 0-.158.505 1.03 1.03 0 0 0 .111.517c.101.153.243.275.411.352a1 1 0 0 0 .537.084 1.69 1.69 0 0 0 1.037-.469c.3-.285.57-.599.806-.938a10.25 10.25 0 0 0 .682-1.069 6.73 6.73 0 0 0 .829-2.42c.241-1.698-.521-3.536-1.99-4.286a2.73 2.73 0 0 0-2.293-.112c-.342.151-.63.403-.824.72s-.285.687-.261 1.057a1.43 1.43 0 0 0 .403.938 1.54 1.54 0 0 0 .947.422c.339.03.68-.021.994-.149a2.11 2.11 0 0 0 .811-.587 3.96 3.96 0 0 0 .837-1.634 3.94 3.94 0 0 0 .007-1.832 4.03 4.03 0 0 0-1.663-2.49 4.42 4.42 0 0 0-2.194-.755 4.31 4.31 0 0 0-1.478.15l-.502.155c.149-.085.308-.152.474-.202a4.12 4.12 0 0 1 1.501-.197 4.49 4.49 0 0 1 2.27.736 4.32 4.32 0 0 1 1.21 1.27c.311.501.516 1.059.601 1.641a4.27 4.27 0 0 1-.108 1.742 4.3 4.3 0 0 1-.798 1.556 2.33 2.33 0 0 1-.893.646 2.34 2.34 0 0 1-1.092.165 1.76 1.76 0 0 1-1.062-.469c-.289-.292-.457-.68-.473-1.088a2.06 2.06 0 0 1 .279-1.177 2.02 2.02 0 0 1 .948-.825c.399-.166.831-.242 1.263-.223a2.94 2.94 0 0 1 1.238.335c.785.419 1.402 1.091 1.748 1.904.367.818.5 1.72.384 2.607a6.99 6.99 0 0 1-.862 2.509c-.209.379-.443.744-.701 1.093a6.14 6.14 0 0 1-.834.98 1.94 1.94 0 0 1-1.189.539 1.24 1.24 0 0 1-.66-.115 1.23 1.23 0 0 1-.501-.439c-.1-.195-.149-.411-.14-.63s.073-.431.187-.618a2.08 2.08 0 0 1 .863-.858 3.37 3.37 0 0 1 2.264-.324 4.25 4.25 0 0 1 1.943.938c.959.866 1.695 1.946 2.146 3.151a10.88 10.88 0 0 1 .706 5.421 7.77 7.77 0 0 1-.479 1.951zm169.909 72.948c.002-.045.01-.089.023-.132 0-.098.057-.225.095-.375.115-.483.199-.974.251-1.468.188-1.817-.077-3.653-.772-5.346a7.96 7.96 0 0 0-2.118-3.057c-.529-.45-1.167-.754-1.852-.882-.719-.147-1.468-.038-2.113.309-.329.173-.598.44-.772.765a1.08 1.08 0 0 0-.048 1.018c.102.151.245.272.412.349a1.02 1.02 0 0 0 .536.087 1.72 1.72 0 0 0 1.037-.469c.297-.287.565-.601.801-.938.249-.343.477-.7.682-1.07a6.78 6.78 0 0 0 .834-2.424c.242-1.693-.526-3.536-1.99-4.282a2.75 2.75 0 0 0-1.133-.311 2.74 2.74 0 0 0-1.16.194 1.84 1.84 0 0 0-.826.723 1.81 1.81 0 0 0-.264 1.059 1.45 1.45 0 0 0 .408.938c.258.242.593.389.947.417.339.031.681-.019.996-.146a2.12 2.12 0 0 0 .814-.585c.404-.474.69-1.034.835-1.637s.147-1.23.004-1.834c-.205-1.014-.795-1.912-1.649-2.508a4.47 4.47 0 0 0-1.771-.701c-.635-.105-1.285-.072-1.905.096l-.503.159c.15-.086.309-.155.474-.206a4.22 4.22 0 0 1 1.497-.193c.81.033 1.596.286 2.27.732a4.33 4.33 0 0 1 1.209 1.277c.311.503.514 1.063.597 1.647a4.27 4.27 0 0 1-.114 1.746 4.29 4.29 0 0 1-.806 1.558c-.241.283-.547.504-.893.645s-.72.198-1.092.166a1.78 1.78 0 0 1-1.062-.469 1.63 1.63 0 0 1-.473-1.092c-.025-.412.074-.821.284-1.178a2.02 2.02 0 0 1 .947-.825 2.97 2.97 0 0 1 1.264-.219c.432.019.855.132 1.238.332.786.418 1.404 1.09 1.753 1.904a4.86 4.86 0 0 1 .369 2.626 6.94 6.94 0 0 1-.857 2.504 11.02 11.02 0 0 1-.701 1.097 6.65 6.65 0 0 1-.839.981 1.95 1.95 0 0 1-1.184.539 1.25 1.25 0 0 1-.662-.114 1.24 1.24 0 0 1-.504-.439 1.29 1.29 0 0 1-.138-.63 1.28 1.28 0 0 1 .186-.618c.194-.365.494-.664.862-.858.694-.368 1.497-.484 2.269-.328a4.28 4.28 0 0 1 1.943.938c.957.867 1.693 1.947 2.146 3.151.693 1.718.936 3.581.706 5.417-.079.671-.243 1.329-.488 1.96zM32.277 50.733a.48.48 0 0 1 0-.131c0-.098.057-.225.095-.375a11.77 11.77 0 0 0 .246-1.468c.193-1.818-.073-3.655-.772-5.346a7.89 7.89 0 0 0-2.113-3.058 4 4 0 0 0-1.852-.882c-.719-.147-1.468-.038-2.113.309a1.83 1.83 0 0 0-.772.764c-.093.154-.146.328-.155.508s.029.358.107.52a1 1 0 0 0 .412.35c.167.077.352.107.536.087.39-.035.755-.201 1.038-.469.297-.286.566-.6.801-.938.249-.343.477-.7.682-1.069a6.71 6.71 0 0 0 .829-2.425c.242-1.693-.521-3.536-1.985-4.282-.35-.184-.737-.291-1.133-.311a2.74 2.74 0 0 0-1.16.194 1.84 1.84 0 0 0-.826.722c-.195.318-.287.688-.263 1.06a1.44 1.44 0 0 0 .403.938c.26.241.593.389.947.422.339.029.68-.023.995-.151a2.14 2.14 0 0 0 .815-.585 3.97 3.97 0 0 0 .835-1.637c.146-.603.147-1.23.004-1.834a4.04 4.04 0 0 0-1.649-2.509 4.47 4.47 0 0 0-1.771-.701 4.5 4.5 0 0 0-1.905.096l-.502.16a2.38 2.38 0 0 1 .474-.206 4.21 4.21 0 0 1 1.521-.188 4.43 4.43 0 0 1 2.255.718 4.33 4.33 0 0 1 1.211 1.275 4.29 4.29 0 0 1 .6 1.646c.084.583.047 1.178-.11 1.747a4.3 4.3 0 0 1-.802 1.56c-.241.283-.547.504-.893.645s-.72.198-1.092.166a1.81 1.81 0 0 1-1.066-.469 1.65 1.65 0 0 1-.474-1.088 2.09 2.09 0 0 1 .284-1.182c.219-.368.551-.657.948-.825a2.98 2.98 0 0 1 1.264-.219 2.97 2.97 0 0 1 1.238.332 3.89 3.89 0 0 1 1.734 1.895c.368.824.497 1.733.374 2.626-.121.88-.409 1.73-.848 2.504a10.82 10.82 0 0 1-.711 1.097 6.58 6.58 0 0 1-.839.98 1.96 1.96 0 0 1-1.189.539c-.226.023-.454-.017-.659-.114a1.23 1.23 0 0 1-.502-.439c-.099-.195-.146-.412-.138-.63a1.28 1.28 0 0 1 .186-.618c.194-.365.495-.664.862-.858a3.37 3.37 0 0 1 2.265-.324c.719.139 1.389.462 1.942.938a8.07 8.07 0 0 1 2.151 3.151 10.92 10.92 0 0 1 .701 5.417 7.85 7.85 0 0 1-.46 1.965z" class="D"/><path d="M312.541 202.537c0 .066-65.034.122-145.243.122s-145.263-.056-145.263-.122 65.025-.122 145.258-.122l145.248.122z" class="B"/><path d="M237.653 63.278c1.279 1.13.279 2.711.947 2.992.678.327 1.249.837 1.646 1.472a3.92 3.92 0 0 1 .595 2.115c-.033 1.337-1.265 2.542-.948 3.841.233.938 1.161 1.487 1.801 2.209 1.649 1.876 1.184 4.929-.474 6.772s-4.212 2.664-6.685 3.034c-3.591.529-7.257.254-10.726-.807-1.516-.469-3.037-1.107-4.117-2.256s-1.63-2.912-.976-4.347c.474-1.065 1.587-1.984 1.393-3.137-.16-.513-.376-1.006-.645-1.473-.473-1.186-.033-2.551.654-3.634s1.606-2.012 2.203-3.147.82-2.593.076-3.639" class="C"/><path d="M241.798 82.641s10.665 9.708 10.977 8.568c1.711-6.181 1.502-14.139 1.341-17.192-.166-.263-.355-.558-.578-.882a4.04 4.04 0 0 0-.948-.971 6.32 6.32 0 0 0-1.459-.868c-.502-.155-.564-.821-.118-.966s1.829.244 3.094 1.355.81-1.454.658-2.392-.474-3.85-.218-4.117c.374-.389.881-.056 1.005.882s.71 3.728 1.208 3.639-.337-4.844-.337-4.844-.341-.994.228-1.116c1.028-.22 1.53 4.896 1.563 5.384.029.338.569.258.526-.103s-.948-4.732.109-4.966c.801-.178.45 4.221 1.142 5.023s-.076-3.362.696-3.498c.289-.052.512-.052.607 2.396a53.87 53.87 0 0 1-.384 5.9c.474 6.739 1.241 27.341-8.125 26.374-11.053-1.139-13.361-9.848-13.361-9.848l2.374-7.757zm-39.38 23.542c-1.265-1.443-1.958-3.29-1.951-5.201s.714-3.753 1.989-5.186l6.633-7.442 5.77 5.365c-.232.155-6.182 7.64-6.182 7.64l8.314 10.251a5.88 5.88 0 0 1 1.226 2.688c.172.984.089 1.996-.24 2.94l-2.222 5.383-6.079-2.701.474-.703h4.567l.27-1.084-12.569-11.949z" class="G"/><path d="M222.563 200.675l.023-4.328h8.192l.033 6.331-.507.032c-2.26.127-11.503.469-13.014.033-1.687-.511 5.273-2.068 5.273-2.068z" class="C"/><g class="E"><path d="M227.85 202.715a2.81 2.81 0 0 1 1.042-1.73c.537-.422 1.212-.632 1.895-.591v2.265l-2.937.056z" class="L"/><path d="M219.175 201.552s-2.44.699-2.136 1.093 9.66.389 13.786.023v-.178l-10.896.103s-.28-1.022-.754-1.041z" class="L"/></g><g class="B"><path d="M230.868 202.424h-.137l-.408.029-1.488.061-4.917.093a141.41 141.41 0 0 1-4.918-.07l-1.488-.061-.402-.023h-.142.544l1.493.028 4.913.042 4.913-.061 1.492-.038h.545z"/><path d="M219.9 202.753a2.93 2.93 0 0 0-.279-.704 3.64 3.64 0 0 0-.507-.567 1.13 1.13 0 0 1 .592.516c.157.219.226.488.194.755zm2.573-1.407c-.024 0-.138-.127-.261-.315a.92.92 0 0 1-.175-.361c.024 0 .142.122.261.31s.199.366.175.366zm.663-.352c0 .023-.147-.061-.289-.188s-.241-.243-.222-.262.146.061.289.187.241.244.222.263zm.417-.764c-.136.05-.282.07-.426.056-.146.016-.293 0-.432-.047.139-.047.286-.065.432-.052.143-.019.289-.004.426.043z"/><path d="M223.695 199.69c-.14.092-.305.14-.474.136a.85.85 0 0 1-.473-.061 2.68 2.68 0 0 1 .473-.037c.157-.028.315-.04.474-.038zm-1.502.948c-.174.028-.352.028-.526 0-.19-.023-.377-.064-.559-.122a1.44 1.44 0 0 1-.322-.127c-.062-.038-.109-.096-.133-.164-.007-.038-.003-.078.011-.115a.21.21 0 0 1 .07-.091.98.98 0 0 1 .832-.006c.131.059.247.147.34.255s.16.237.197.374v.141c-.046-.171-.126-.33-.237-.469a.95.95 0 0 0-.45-.286.82.82 0 0 0-.319-.042c-.108.007-.214.036-.311.084-.08.061-.047.16.043.211a1.51 1.51 0 0 0 .298.127 4.2 4.2 0 0 0 .54.141l.526.089z"/><path d="M222.056 200.661a.52.52 0 0 1-.062-.361.89.89 0 0 1 .147-.38.52.52 0 0 1 .436-.267.21.21 0 0 1 .13.09c.03.045.041.1.031.154-.011.082-.04.16-.085.229-.072.115-.156.222-.251.319a.79.79 0 0 1-.299.211s.105-.093.247-.262c.085-.095.16-.199.222-.31.071-.112.119-.309 0-.333s-.265.118-.346.221c-.072.101-.122.216-.146.337-.017.117-.025.234-.024.352zm8.869-.3h-.606c-.483.059-.94.247-1.322.544s-.661.701-.82 1.154c-.128.347-.137.581-.156.581a.5.5 0 0 1 0-.164 2.07 2.07 0 0 1 .085-.441 2.56 2.56 0 0 1 .829-1.21c.395-.308.873-.492 1.374-.53.158-.016.316-.016.474 0 .085.043.142.057.142.066zm-.858-3.63c.059.553.085 1.109.076 1.665.026.557.016 1.114-.028 1.67a15.79 15.79 0 0 1-.071-1.67 15.16 15.16 0 0 1 .023-1.665zm-3.093 4.929a4.75 4.75 0 0 1-1.194.117 4.43 4.43 0 0 1-1.199-.094c0-.028.54 0 1.199 0l1.194-.023z"/><path d="M228.599 201.655c.023 0-.043.113-.095.235s-.085.23-.114.225-.042-.127 0-.267.175-.211.209-.193zm.587-.745s-.033.103-.118.187-.171.141-.19.117.033-.103.119-.187.17-.15.189-.117zm.862-.343c0 .028-.113.028-.232.071s-.208.103-.227.084.047-.131.194-.178.275-.005.265.023zm.621-.159c0 .028-.038.07-.109.094s-.128.028-.137 0 .033-.071.104-.094.128-.028.142 0z"/></g><path d="M247.668 200.933v-4.328h-8.215l-.033 6.335.511.033c2.26.122 11.499.469 13.01.028 1.687-.511-5.273-2.068-5.273-2.068z" class="C"/><g class="E"><path d="M242.385 202.973a2.81 2.81 0 0 0-1.047-1.73 2.79 2.79 0 0 0-1.895-.591v2.27l2.942.051z" class="L"/><path d="M251.06 201.815s2.435.698 2.132 1.097-9.655.385-13.782 0v-.178l10.897.103s.275-1.022.753-1.022z" class="L"/></g><g class="B"><path d="M239.363 202.682h.142l.403.024 1.487.065 4.918.09 4.918-.071 1.487-.061h.408.137-.545l-1.487.028-4.918.043-4.913-.061-1.492-.033h-.403l-.142-.024z"/><path d="M250.331 203.011a3.71 3.71 0 0 1 .279-.704 2.91 2.91 0 0 1 .512-.563c-.258.089-.471.272-.597.512-.154.22-.223.488-.194.755zm-2.573-1.407s.142-.127.261-.31.198-.352.175-.366-.138.127-.261.31c-.084.108-.144.233-.175.366zm-.659-.347s.147-.066.289-.193.237-.243.223-.262-.151.065-.289.187-.246.244-.223.268zm-.421-.769c.136.049.282.069.426.056a1.05 1.05 0 0 0 .431-.042.95.95 0 0 0-.426-.057c-.145-.019-.293-.004-.431.043z"/><path d="M246.536 199.939c.14.092.305.141.473.141.161.021.325-.001.474-.066-.156-.026-.315-.037-.474-.033-.156-.028-.314-.042-.473-.042zm1.487.938a1.6 1.6 0 0 0 .526 0 4.02 4.02 0 0 0 .564-.122 1.96 1.96 0 0 0 .322-.131c.062-.037.108-.096.128-.165.009-.038.006-.078-.008-.115s-.04-.068-.072-.091c-.2-.101-.43-.129-.649-.079a.95.95 0 0 0-.545.356c-.081.102-.139.221-.171.347-.012.046-.012.094 0 .14.056-.158.138-.307.242-.44.118-.138.275-.239.45-.291a.81.81 0 0 1 .625.042c.085.061.052.16-.042.216a1.64 1.64 0 0 1-.294.122c-.178.061-.36.108-.545.14-.313.071-.531.071-.531.071z"/><path d="M248.175 200.924a.52.52 0 0 0 .062-.366c-.019-.135-.068-.265-.143-.38-.046-.077-.11-.141-.186-.188a.57.57 0 0 0-.254-.079c-.053.013-.099.046-.129.091s-.041.099-.032.153a.55.55 0 0 0 .09.229c.067.117.15.224.246.319.082.094.187.166.303.211 0 0-.104-.093-.251-.258a1.71 1.71 0 0 1-.218-.314c-.076-.112-.123-.309 0-.333s.266.117.346.221a.85.85 0 0 1 .147.342 1.88 1.88 0 0 1 .019.352zm-8.864-.305s.232-.024.601.023a2.61 2.61 0 0 1 1.322.54 2.67 2.67 0 0 1 .824 1.153c.124.347.138.582.157.582a.75.75 0 0 0 0-.164 2.01 2.01 0 0 0-.09-.436 2.47 2.47 0 0 0-.829-1.21c-.393-.312-.872-.498-1.374-.535-.15-.015-.301-.015-.45 0-.056.006-.111.022-.161.047zm.852-3.63c-.058.553-.082 1.109-.071 1.665a14.08 14.08 0 0 0 0 1.669c.059-.552.083-1.109.071-1.664.034-.556.034-1.114 0-1.67zm3.094 4.929c.391.089.793.129 1.194.117a4.43 4.43 0 0 0 1.199-.094c0-.028-.536 0-1.194 0s-1.17-.051-1.199-.023z"/><path d="M241.651 201.913l.1.235c.056.122.085.229.113.225s.038-.127 0-.268-.194-.211-.213-.192zm-.602-.745a.56.56 0 0 0 .114.187c.081.085.171.141.19.122s-.034-.103-.119-.192-.166-.136-.185-.117zm-.867-.343c0 .028.114.028.233.071s.208.103.232.084-.048-.127-.199-.178-.275 0-.266.023zm-.615-.159c0 .023.037.065.104.089s.132.028.142 0-.038-.066-.104-.094-.133-.023-.142.005z"/></g><path d="M215.423 116.003l3.98 83.2 12.754.262-3.307-71.892 8.637 71.587 13.028.324-10.195-84.39" class="J"/><path d="M225.41 199.325c-.066 0-.98-18.59-2.037-41.523l-1.791-41.541c.067-.004.981 18.585 2.037 41.527l1.791 41.537zm19.046-.666c-.071 0-2.369-18.051-5.112-40.331l-4.861-40.36c.071-.028 2.369 18.046 5.107 40.331l4.866 40.36zm-20.78-122.246l-2.331.422a12.04 12.04 0 0 0-6.543 3.517l-8.39 9.905 7.884 6.04 4.353-5.041s-.63 3.09-.502 3.564a3.56 3.56 0 0 0 1.024 1.44l-.138 8.479-3.61 11.255 24.897.258-1.895-11.949.35-12.165 4.179 4.69 7.135-8.315-8.054-8.015a14.36 14.36 0 0 0-5.548-3.555 11.54 11.54 0 0 0-3.179-.638" class="B"/><path d="M234.549 95.65a1.48 1.48 0 0 1-.611.38c-.545.222-1.133.322-1.721.291a4 4 0 0 1-1.681-.469c-.224-.109-.419-.27-.568-.469a6.38 6.38 0 0 0 2.26.671c.792.012 1.58-.124 2.321-.403zm-20.04-15.372a1.15 1.15 0 0 1 .436-.174 2.46 2.46 0 0 1 1.283.061 2.32 2.32 0 0 1 .845.468 2.29 2.29 0 0 1 .577.77c.167.366.239.767.211 1.167a2.41 2.41 0 0 1-.372 1.126 2.37 2.37 0 0 1-.914.765c-.366.173-.771.251-1.176.225a2.1 2.1 0 0 1-.932-.289 2.08 2.08 0 0 1-.697-.677 2.12 2.12 0 0 1-.351-1.224c-.007-.162.027-.323.1-.469.023 0 0 .169 0 .469a2.14 2.14 0 0 0 .393 1.14 1.91 1.91 0 0 0 .649.592 1.94 1.94 0 0 0 .848.243 2.18 2.18 0 0 0 1.05-.214 2.16 2.16 0 0 0 .817-.687c.194-.305.311-.652.339-1.012s-.033-.721-.178-1.052c-.12-.272-.295-.517-.515-.718a2.16 2.16 0 0 0-.765-.45c-.386-.139-.8-.184-1.208-.131a3.39 3.39 0 0 1-.44.07zm10.835 2.176c.049.004.097.017.142.038a1.5 1.5 0 0 1 .384.197c.373.26.668.616.854 1.028a2.48 2.48 0 0 1 .202 1.316 2.21 2.21 0 0 1-.535 1.154 2.48 2.48 0 0 1-1.232.808c-.484.139-.999.128-1.477-.031a2.47 2.47 0 0 1-1.196-.86 2.43 2.43 0 0 1-.487-1.381c-.035-.43.054-.861.256-1.243a2.59 2.59 0 0 1 .734-.83c.433-.32.957-.496 1.497-.502a1.67 1.67 0 0 1 .431.042c.095 0 .143.042.143.052s-.209-.028-.569 0a2.58 2.58 0 0 0-1.393.549c-.298.219-.534.51-.687.845a2.14 2.14 0 0 0-.185 1.069c.018.452.175.888.448 1.25s.653.633 1.086.778.9.155 1.339.031.831-.378 1.121-.727c.267-.287.441-.646.503-1.032.052-.339.026-.685-.076-1.013-.143-.486-.434-.917-.834-1.233-.284-.216-.479-.281-.469-.305zm-10.11 6.392a.43.43 0 0 0 .147.038 1.42 1.42 0 0 1 .383.197c.447.302.781.742.948 1.252a2.45 2.45 0 0 1 .114 1.097 2.22 2.22 0 0 1-.536 1.154 2.48 2.48 0 0 1-1.231.808 2.5 2.5 0 0 1-1.478-.031c-.478-.159-.895-.459-1.196-.859a2.44 2.44 0 0 1-.487-1.381 2.21 2.21 0 0 1 .256-1.243 2.59 2.59 0 0 1 .936-.963 2.63 2.63 0 0 1 1.296-.373 1.8 1.8 0 0 1 .426.047c.099.023.147.042.142.047s-.204 0-.564 0c-.509.041-.996.231-1.397.544-.296.222-.531.514-.683.849s-.218.703-.189 1.069c.019.452.177.887.451 1.249a2.26 2.26 0 0 0 1.086.777c.433.145.9.155 1.34.031s.83-.377 1.122-.725a2.05 2.05 0 0 0 .502-1.032 2.34 2.34 0 0 0-.076-1.018c-.144-.485-.435-.914-.834-1.229-.289-.216-.488-.281-.478-.305zm17.894-1.093a.41.41 0 0 0 .142.038 1.5 1.5 0 0 1 .384.197 2.51 2.51 0 0 1 .854 1.029 2.48 2.48 0 0 1 .202 1.316 2.21 2.21 0 0 1-.535 1.154c-.318.387-.747.669-1.232.808s-.999.128-1.477-.031a2.47 2.47 0 0 1-1.196-.859c-.301-.4-.47-.882-.487-1.381-.038-.424.044-.849.237-1.229a2.6 2.6 0 0 1 .734-.83c.433-.32.957-.496 1.497-.502a1.68 1.68 0 0 1 .432.042c.094.023.142.042.142.052s-.209-.028-.569 0a2.58 2.58 0 0 0-1.393.549c-.298.219-.534.51-.687.845s-.216.703-.184 1.069c.018.452.174.888.448 1.25a2.25 2.25 0 0 0 1.085.778 2.28 2.28 0 0 0 1.34.031c.439-.124.83-.378 1.12-.727.267-.288.441-.646.503-1.032a2.23 2.23 0 0 0-.076-1.013c-.143-.486-.434-.917-.834-1.233-.242-.216-.46-.295-.45-.319zm11.318-1.097c.051.004.101.016.147.037a1.75 1.75 0 0 1 .384.197 2.5 2.5 0 0 1 .853 1.029 2.48 2.48 0 0 1 .199 1.316 2.18 2.18 0 0 1-.536 1.154 2.6 2.6 0 0 1-1.236.784 2.62 2.62 0 0 1-1.469-.006 2.63 2.63 0 0 1-1.173-.878 2.59 2.59 0 0 1-.514-1.364 2.27 2.27 0 0 1 .261-1.243 2.42 2.42 0 0 1 .734-.825c.43-.322.953-.5 1.493-.507a1.88 1.88 0 0 1 .431.042c.095.028.142.042.142.052s-.208-.023-.569 0c-.509.042-.993.233-1.392.549-.298.219-.535.51-.687.845a2.15 2.15 0 0 0-.185 1.069 2.38 2.38 0 0 0 .474 1.231 2.4 2.4 0 0 0 1.061.795 2.39 2.39 0 0 0 1.331.012 2.38 2.38 0 0 0 1.128-.701c.267-.29.443-.65.507-1.037a2.33 2.33 0 0 0-.076-1.013 2.47 2.47 0 0 0-.834-1.233c-.289-.211-.483-.281-.474-.305zm-7.116-6.814c.05.004.098.017.142.038.136.05.265.116.384.197.449.303.782.745.948 1.257a2.36 2.36 0 0 1 .113 1.093 2.21 2.21 0 0 1-.535 1.154c-.328.374-.758.647-1.239.784a2.62 2.62 0 0 1-1.471-.01 2.62 2.62 0 0 1-1.17-.876 2.58 2.58 0 0 1-.512-1.361c-.035-.43.054-.861.256-1.243a2.61 2.61 0 0 1 .937-.959c.391-.233.838-.362 1.295-.372.143-.003.286.011.426.042.099 0 .147.042.147.052s-.209-.023-.569 0a2.57 2.57 0 0 0-1.393.549 2.16 2.16 0 0 0-.686.845c-.153.335-.217.703-.185 1.069a2.22 2.22 0 0 0 .45 1.247 2.26 2.26 0 0 0 1.084.776 2.28 2.28 0 0 0 1.337.034 2.27 2.27 0 0 0 1.123-.721c.263-.291.437-.651.502-1.036a2.23 2.23 0 0 0-.076-1.013c-.143-.486-.434-.917-.834-1.233-.289-.216-.483-.267-.474-.309zm-2.378 19.387a.45.45 0 0 0 .147.038 1.43 1.43 0 0 1 .384.197 2.42 2.42 0 0 1 .947 1.252c.122.353.16.728.114 1.097-.061.429-.249.831-.54 1.154a2.48 2.48 0 0 1-1.232.802c-.484.137-.998.126-1.474-.033a2.48 2.48 0 0 1-1.195-.856 2.44 2.44 0 0 1-.491-1.376 2.26 2.26 0 0 1 .26-1.243c.181-.327.431-.61.735-.83a2.61 2.61 0 0 1 1.497-.506 1.81 1.81 0 0 1 .426.047c.095.023.147.038.142.047s-.203-.023-.568 0a2.62 2.62 0 0 0-1.393.544c-.296.222-.531.514-.683.849a2.19 2.19 0 0 0-.189 1.07 2.22 2.22 0 0 0 .448 1.25c.274.362.653.633 1.086.777s.9.156 1.339.031a2.25 2.25 0 0 0 1.121-.727c.266-.288.442-.646.507-1.031a2.31 2.31 0 0 0-.076-1.018 2.43 2.43 0 0 0-.834-1.229c-.289-.216-.488-.281-.478-.305zm-.749 10.199s.053 0 .147.033c.136.05.265.116.384.197a2.53 2.53 0 0 1 .853 1.029 2.5 2.5 0 0 1 .204 1.316 2.22 2.22 0 0 1-.559 1.177c-.319.386-.749.667-1.232.804a2.5 2.5 0 0 1-1.476-.033c-.477-.16-.893-.46-1.193-.86s-.47-.881-.487-1.379c-.037-.43.052-.861.256-1.242.182-.325.432-.607.735-.826.431-.323.956-.501 1.497-.506a1.57 1.57 0 0 1 .426.047c.1 0 .147.037.142.047s-.204-.024-.564 0c-.51.043-.996.234-1.397.548a2.2 2.2 0 0 0-.684.849c-.152.335-.217.703-.188 1.069.039.446.205.872.477 1.23a2.42 2.42 0 0 0 1.063.792 2.4 2.4 0 0 0 1.329.01c.434-.122.825-.365 1.125-.7a2.01 2.01 0 0 0 .507-1.036c.05-.339.024-.685-.076-1.013a2.43 2.43 0 0 0-.834-1.229c-.265-.244-.464-.324-.455-.324zm-12.346 1.013c.049.004.097.017.142.038.136.05.265.116.384.197.448.303.782.745.947 1.257.124.35.163.724.114 1.092a2.21 2.21 0 0 1-.535 1.154c-.328.374-.759.647-1.24.784s-.991.134-1.47-.01c-.467-.176-.873-.479-1.171-.876s-.475-.868-.511-1.361c-.035-.43.054-.861.256-1.243.222-.395.545-.726.937-.959s.837-.362 1.294-.373a1.86 1.86 0 0 1 .427.043c.099 0 .146.042.146.051s-.208-.023-.568 0a2.57 2.57 0 0 0-1.393.549c-.298.219-.534.51-.688.845s-.218.702-.188 1.068c.039.447.204.873.477 1.231a2.42 2.42 0 0 0 1.062.795c.434.127.895.13 1.33.008a2.4 2.4 0 0 0 1.129-.697 2.04 2.04 0 0 0 .502-1.037c.053-.339.027-.685-.075-1.013-.143-.486-.434-.917-.834-1.233-.289-.216-.488-.286-.474-.31zm2.71-16.76a.45.45 0 0 0 .147.038 1.65 1.65 0 0 1 .383.197 2.45 2.45 0 0 1 .948 1.252 2.43 2.43 0 0 1 .109 1.097 2.21 2.21 0 0 1-.535 1.154 2.48 2.48 0 0 1-1.232.802c-.484.137-.998.126-1.475-.033a2.48 2.48 0 0 1-1.194-.856 2.44 2.44 0 0 1-.491-1.376 2.22 2.22 0 0 1 .26-1.243 2.57 2.57 0 0 1 .932-.964 2.6 2.6 0 0 1 1.295-.368c.145-.005.29.009.431.042.095 0 .142.042.142.052s-.208-.028-.568 0a2.59 2.59 0 0 0-1.393.549c-.298.219-.534.51-.687.845a2.14 2.14 0 0 0-.185 1.069c.018.452.174.888.448 1.25a2.26 2.26 0 0 0 1.086.778c.433.145.9.155 1.339.031a2.26 2.26 0 0 0 1.121-.727 1.98 1.98 0 0 0 .507-1.032c.048-.339.021-.685-.081-1.013a2.48 2.48 0 0 0-.829-1.233c-.293-.22-.488-.286-.478-.309zm2.373 9.318a.45.45 0 0 0 .147.037 1.6 1.6 0 0 1 .384.197c.446.304.779.744.948 1.253a2.46 2.46 0 0 1 .109 1.097 2.14 2.14 0 0 1-.536 1.154 2.49 2.49 0 0 1-1.232.802 2.51 2.51 0 0 1-1.474-.033 2.48 2.48 0 0 1-1.194-.856 2.44 2.44 0 0 1-.492-1.377c-.034-.43.057-.861.261-1.242a2.49 2.49 0 0 1 .734-.83 2.56 2.56 0 0 1 1.493-.502c.145-.005.29.009.431.042.095 0 .142.042.142.052s-.209-.029-.569 0a2.59 2.59 0 0 0-1.392.548c-.298.219-.535.51-.687.845a2.14 2.14 0 0 0-.185 1.069 2.37 2.37 0 0 0 .474 1.23 2.42 2.42 0 0 0 1.061.796c.434.129.896.132 1.332.009s.827-.367 1.127-.703a2 2 0 0 0 .507-1.032 2.33 2.33 0 0 0-.076-1.013c-.15-.478-.442-.9-.839-1.21-.284-.244-.483-.31-.474-.333z" fill="#fafafa"/><path d="M224.505 76.784l-.028-2.94s-3.208-.338-3.402-3.484 0-10.406 0-10.406l5.842-2.814 6.419 4.807-.677 14.983c-.047 1.039-.496 2.02-1.255 2.739a4.1 4.1 0 0 1-5.692-.05 4.02 4.02 0 0 1-1.207-2.834z" class="G"/><g class="B"><path d="M221.966 64.971c0 .08.024.158.068.224a.41.41 0 0 0 .183.149c.075.031.157.038.236.023s.151-.054.208-.11.096-.128.112-.207.008-.159-.023-.233-.083-.137-.15-.181a.41.41 0 0 0-.227-.068c-.053 0-.106.01-.156.031s-.094.05-.132.087-.068.082-.088.131a.39.39 0 0 0-.031.154z"/><path d="M221.369 64.806c.052.052.35-.202.791-.225s.763.188.81.127-.033-.122-.175-.22a1.12 1.12 0 0 0-.654-.169 1.09 1.09 0 0 0-.625.249c-.133.112-.176.216-.147.239zm5.794.568c.225 0 .408-.181.408-.403s-.183-.403-.408-.403-.407.181-.407.403.182.403.407.403z"/><path d="M226.23 64.806c.052.052.35-.202.791-.225s.768.188.81.127-.028-.122-.175-.22a1.12 1.12 0 0 0-.654-.169 1.09 1.09 0 0 0-.625.249c-.147.112-.18.216-.147.239zm-1.587 3.663c-.235.062-.479.082-.72.061a.79.79 0 0 1-.199 0 .29.29 0 0 1-.204-.169c-.041-.156-.027-.321.038-.469l.284-.905a12.1 12.1 0 0 1 .872-2.279 11.91 11.91 0 0 1-.635 2.345l-.303.9c-.053.101-.076.215-.067.328 0 .061.105.08.218.089.243-.008.485.026.716.098z"/></g><path d="M224.477 73.843c1.462-.074 2.871-.562 4.06-1.407 0 0-.867 2.312-4.055 2.181l-.005-.774z" class="H"/><path d="M238.041 64.567v.558l-.327-2.265c-1.734-6.565-7.58-7.789-8.713-7.789-1.236 0-3.368-.638-6.552 2.57-2.62 2.64-2.084 6.425-2.084 6.425l1.184-.173 4.652-1.191c.668-1.407.986-2.485 1.294-3.203a5.82 5.82 0 0 0 1.84 3.365 5.93 5.93 0 0 0 3.551 1.512l-.085 9.412c6.192-1.304 5.24-9.22 5.24-9.22z" class="C"/><path d="M225.51 69.515a.61.61 0 0 0-.773.056c-.093.104-.145.238-.145.377s.052.274.145.377c.101.099.238.154.379.154s.278-.055.379-.154a.57.57 0 0 0 .126-.248c.021-.092.018-.187-.007-.277a.77.77 0 0 0-.336-.441" class="H"/><path d="M225.856 68.835c.028 0 .037.15-.043.361a1.49 1.49 0 0 1-.531.699 1.47 1.47 0 0 1-.852.258c-.233 0-.365-.061-.361-.094.375-.065.736-.188 1.071-.366.498-.352.645-.882.716-.858zm1.752-5.159c-.047.047-.341-.258-.805-.277s-.782.253-.829.202.024-.127.17-.239a1.01 1.01 0 0 1 .673-.206c.242.014.471.106.649.267.133.127.185.235.142.253z" class="B"/><path d="M236.681 63.043a4.73 4.73 0 0 1 .91-2.11 2.37 2.37 0 0 1 .912-.701 2.39 2.39 0 0 1 1.139-.19 1.86 1.86 0 0 1 .779.295c.233.156.427.363.567.605a1.81 1.81 0 0 1 .24.79c.018.278-.028.557-.136.814a2.27 2.27 0 0 1-.923.967c-.399.223-.857.323-1.313.285-.918-.096-1.771-.515-2.402-1.182" class="C"/><g class="G"><path d="M178.853 79.659l11.844 3.039 10.252-11.133c.46-.375 6.467 1.51 6.467 1.51l-6.978 12.789c-1.663 4.169-4.141 6.523-6.548 6.627l-19.424-3.817 4.387-9.013z"/><path d="M200.537 72.043l1.54-3.091c.454-1.181.846-2.385 1.175-3.606 0 0 .805-.174.753 1.609s.313 1.29.313 1.29 3.743-4.502 4.652-4.221c.337.112-.128 1.182-.748 1.759a12.41 12.41 0 0 0-1.289 1.515s3.52-3.142 4.326-2.65c0 0 .393.309-.725 1.238-.928.765-1.799 1.596-2.606 2.486 0 0 3.492-2.434 3.885-2.171.658.436-2.885 2.922-3.468 3.846 0 0 2.629-1.998 2.7-1.355s-3.202 2.893-4.699 6.162l-5.809-2.809z"/></g><path d="M203.351 68.694s.303.056.659.389a2.4 2.4 0 0 1 .549.767 2.38 2.38 0 0 1 .209.917l-.218-.08c.421-.488.997-.819 1.634-.938a1.37 1.37 0 0 1 .773 0c0 .042-.294.033-.735.155-.574.15-1.09.465-1.483.905l-.213.23v-.305a2.48 2.48 0 0 0-.635-1.571c-.303-.3-.563-.436-.54-.469z" class="H"/><g class="G"><path d="M148.531 79.157L136.687 82.2l-10.229-11.138c-.459-.38-6.467 1.515-6.467 1.515l6.979 12.789c1.663 4.169 4.141 6.523 6.547 6.627l19.425-3.817-4.411-9.018z"/><path d="M126.847 71.541l-1.54-3.091c-.453-1.171-.845-2.363-1.175-3.573 0 0-.805-.178-.753 1.609s-.313 1.29-.313 1.29-3.743-4.502-4.652-4.221c-.337.113.128 1.182.748 1.759.47.47.901.977 1.289 1.515 0 0-3.52-3.142-4.326-2.65 0 0-.393.309.725 1.233a25.29 25.29 0 0 1 2.606 2.49s-3.492-2.434-3.885-2.171c-.658.436 2.881 2.922 3.468 3.846 0 0-2.629-1.998-2.7-1.355s3.202 2.894 4.699 6.162l5.809-2.842z"/></g><path d="M124.033 68.192c0 .033-.237.169-.536.507-.39.435-.614.99-.635 1.571v.305l-.213-.23c-.393-.44-.909-.755-1.483-.905-.44-.122-.734-.113-.734-.155a1.37 1.37 0 0 1 .772 0c.634.113 1.21.435 1.635.915l-.218.08a2.38 2.38 0 0 1 .209-.917c.13-.289.316-.55.549-.767.35-.347.649-.436.654-.403z" class="H"/><path d="M168.496 63.77c-.055.135-.067.284-.036.426a.73.73 0 0 0 .212.373c.106.101.24.168.385.192s.295.006.429-.054c.474-.216.592-.877.526-1.407s-.213-1.107.038-1.585a3.57 3.57 0 0 1 .881-.863 2.31 2.31 0 0 0 .611-.877 2.29 2.29 0 0 0 .147-1.055 1.93 1.93 0 0 0-.404-.982 1.97 1.97 0 0 0-.865-.626c-.702-.234-1.588-.066-2.09-.605-.365-.389-.355-.994-.63-1.454-.422-.708-1.393-.872-2.222-.802s-1.682.281-2.478.038c-.668-.202-1.194-.694-1.81-1.018-.672-.348-1.438-.479-2.19-.376a3.66 3.66 0 0 0-2.004.952c-.552.516-.927 1.19-1.074 1.927s-.057 1.502.256 2.186a2.28 2.28 0 0 0 1.071 1.163" class="B"/><path d="M167.667 77.759l-7.841-.619c-.052-.905 0-4.413 0-4.413s-3.264-.502-3.316-3.752.549-10.631.549-10.631c1.854-.79 3.888-1.077 5.89-.829s3.903 1.019 5.504 2.236l.474.366-1.26 17.643z" class="G"/><g class="B"><path d="M158.386 63.826a.47.47 0 0 0 .154-.324c.007-.124-.037-.245-.121-.337a.48.48 0 0 0-.149-.11c-.057-.027-.118-.042-.181-.045a.48.48 0 0 0-.184.027c-.059.021-.113.053-.159.095-.093.084-.148.2-.154.324s.037.245.121.337a.47.47 0 0 0 .149.11.48.48 0 0 0 .18.045c.063.003.126-.006.184-.027s.114-.053.16-.095z"/><path d="M157.021 63.235c.052.056.37-.188.82-.192s.777.23.829.174-.028-.127-.171-.235c-.19-.138-.422-.211-.658-.206s-.465.08-.654.22c-.128.113-.189.216-.166.239zm5.553.08c-.107.065-.183.169-.212.289s-.009.247.056.353c.024.064.062.121.112.169s.108.084.173.106a.48.48 0 0 0 .203.024.47.47 0 0 0 .194-.062.46.46 0 0 0 .15-.138c.039-.056.065-.12.077-.187a.46.46 0 0 0-.01-.202.47.47 0 0 0-.094-.179c-.031-.054-.072-.101-.122-.139a.47.47 0 0 0-.166-.082.48.48 0 0 0-.185-.012c-.062.008-.122.028-.176.059z"/><path d="M161.906 63.47c.047.056.369-.188.819-.192s.777.23.825.174-.029-.127-.171-.234a1.07 1.07 0 0 0-.635-.216c-.236.003-.465.08-.653.22-.162.122-.214.248-.185.248zm-1.805 3.752c-.232-.09-.477-.14-.725-.15-.119 0-.213-.042-.218-.103-.005-.116.023-.231.08-.333l.356-.905c.339-.764.598-1.561.772-2.378a12.39 12.39 0 0 0-1.009 2.289l-.336.91c-.073.145-.096.31-.067.469a.31.31 0 0 0 .204.183.85.85 0 0 0 .199.028 2.15 2.15 0 0 0 .744-.009z"/></g><path d="M161.56 67.714c-.702.308-1.443.521-2.203.633.156.229.385.4.65.485a1.26 1.26 0 0 0 .814-.016c.976-.333.739-1.102.739-1.102z" class="E"/><path d="M159.835 72.68a7.67 7.67 0 0 0 4.264-1.196s-1.004 2.321-4.264 2.031v-.835z" class="H"/><path d="M156.993 59.16s1.895 1.093 4.581 0c1.758-.713 3.757-.975 4.169-.61s.37 2.101 2.009 2.729c0 0-.36 3.283.971 3.283s.886-5.159.886-5.159l-3.122-1.805-3.491-.938-3.369.22-2.634.492v1.787z" class="B"/><path d="M168.539 63.47c.057-.023 2.245-.657 2.174 1.552s-2.297 1.679-2.302 1.618.128-3.17.128-3.17z" class="G"/><path d="M169.121 65.815a.74.74 0 0 0 .105.061c.045.019.094.03.144.03a.37.37 0 0 0 .145-.03.94.94 0 0 0 .353-.355c.084-.148.125-.315.12-.484a1.22 1.22 0 0 0-.094-.553c-.018-.07-.053-.134-.102-.187s-.11-.094-.178-.118c-.044-.014-.092-.011-.134.007a.19.19 0 0 0-.098.092c-.033.061 0 .103-.033.108s-.048-.037-.024-.131c.013-.053.045-.1.09-.131.063-.044.141-.063.218-.052.091.021.175.065.244.127s.12.141.149.229a1.26 1.26 0 0 1 .114.619.99.99 0 0 1-.153.559 1 1 0 0 1-.444.379c-.06.015-.122.017-.183.006s-.118-.036-.168-.072c-.071-.028-.08-.08-.071-.103z" class="H"/><g class="B"><path d="M170.055 56.632c0 .07-.351.038-.72.159s-.631.324-.683.277.157-.375.607-.511.819.014.796.075z"/><path d="M168.785 55.239a1.49 1.49 0 0 1 .066 1.05c-.118.6-.497.938-.54.91s.194-.422.299-.938.099-1.018.175-1.022zm-9.58 7.194c-.066.122-.473 0-1.009 0s-.947.047-1.009-.08.389-.436 1.033-.408 1.061.38.985.488zm5.008-.412c-.066.122-.474 0-1.009 0s-.948.047-1.009-.08.384-.436 1.033-.408 1.061.375.985.488z"/></g><path d="M182.686 198.532l.777 3.236s5.339 6.865 6.988 6.532c1.08-.22-.247-2.011-2.279-7.231l-.427-2.153-5.059-.384z" class="C"/><g class="B"><path d="M190.669 207.274c-.008.035-.023.068-.043.098a.63.63 0 0 1-.223.206c-.145.077-.309.113-.474.104a1.24 1.24 0 0 1-.601-.221c-.957-.762-1.857-1.593-2.691-2.485a33.34 33.34 0 0 1-2.369-2.767l-.659-.891-.17-.249-.057-.089c.028.022.052.049.071.08l.185.234.682.872 2.407 2.744a29.17 29.17 0 0 0 2.658 2.495 1 1 0 0 0 .491.212c.181.025.365 0 .532-.071a.67.67 0 0 0 .261-.272z"/><path d="M189.91 205.069c-.143-.007-.287-.007-.431 0-.337.055-.66.178-.947.361-.301.17-.549.416-.72.713-.128.23-.161.394-.18.39a.92.92 0 0 1 .113-.423c.166-.319.421-.584.735-.764a2.29 2.29 0 0 1 1.009-.347c.144-.013.289.011.421.07zm-5.055-1.613s.057-.234.1-.605a2.5 2.5 0 0 0-.266-1.407c-.226-.437-.583-.794-1.023-1.022a3.84 3.84 0 0 0-.583-.206c.057-.009.114-.009.171 0 .152.027.3.072.441.136.467.217.848.584 1.08 1.041.238.45.326.964.251 1.468-.024.151-.06.3-.109.445-.014.053-.035.103-.062.15z"/><path d="M183.022 199.071a3.35 3.35 0 0 1 .294 1.013l.184 1.037c-.147-.323-.242-.666-.279-1.018l-.199-1.032zm5.244 2.444c0 .032-.303 0-.663.103l-.639.197a1.59 1.59 0 0 1 .618-.291 1.61 1.61 0 0 1 .684-.009zm.109.558c0 .028-.255 0-.554.07s-.512.206-.53.183a.85.85 0 0 1 .506-.277.79.79 0 0 1 .578.024zm.427.68c-.191-.022-.383-.022-.574 0a2.44 2.44 0 0 0-.53.229.7.7 0 0 1 .216-.22.71.71 0 0 1 .291-.108c.1-.029.206-.036.31-.019s.201.058.287.118zm-.905-1.468a.61.61 0 0 1-.175-.024c-.161-.03-.32-.072-.474-.126a4.04 4.04 0 0 1-.663-.291 3.76 3.76 0 0 1-.37-.225c-.072-.043-.133-.102-.179-.172a.54.54 0 0 1-.086-.231c.007-.045.023-.087.048-.124s.057-.069.095-.093.081-.04.126-.046a.33.33 0 0 1 .133.009.86.86 0 0 1 .375.249c.168.167.327.344.473.53a3.9 3.9 0 0 1 .294.384c.067.094.1.15.09.155s-.161-.192-.436-.497l-.502-.506a.76.76 0 0 0-.327-.221c-.123-.028-.284.038-.284.164s.114.239.223.319a3.54 3.54 0 0 0 .355.225 4.65 4.65 0 0 0 .644.31l.64.211z"/><path d="M187.617 201.219c-.008-.054-.008-.11 0-.164 0-.103 0-.253.034-.436.026-.22.083-.434.17-.638a1.32 1.32 0 0 1 .209-.342c.046-.066.113-.114.19-.138s.16-.022.236.006c.062.049.109.114.135.188a.4.4 0 0 1 .012.23 1.46 1.46 0 0 1-.119.38c-.095.2-.223.384-.379.544-.104.105-.218.201-.341.286-.042.036-.09.064-.142.084 0 0 .185-.145.431-.417a2.06 2.06 0 0 0 .346-.535c.05-.112.085-.23.104-.352.016-.057.016-.117-.001-.175s-.049-.108-.093-.148c-.1-.056-.223.023-.308.112a1.53 1.53 0 0 0-.199.31c-.086.197-.146.403-.18.614-.024.199-.059.396-.105.591z"/></g><path d="M183.462 201.758l-.379-1.557s1.313.24 1.649 1.21c.202.53.289 1.096.256 1.661l2.843 3.034s.715-1.379 2.004-1.051c0 0 1.018 2.219.985 2.772s-.682.469-.914.384a11.54 11.54 0 0 1-2.549-1.993c-1.502-1.547-3.165-3.508-3.895-4.46z" fill="#000" class="K"/><path d="M156.112 200.159v-4.314l8.158-.099.104 6.308-.507.042c-2.25.15-11.451.61-12.962.174-1.691-.483 5.207-2.111 5.207-2.111z" class="C"/><g fill="#000"><path d="M161.404 202.026c.114-.682.479-1.298 1.023-1.731a2.79 2.79 0 0 1 1.895-.614l.028 2.26-2.946.085z" class="K"/><path d="M152.748 201.074s-2.421.722-2.113 1.116 9.627.272 13.739-.136v-.178l-10.868.229s-.279-1.017-.758-1.031z" class="K"/></g><g class="B"><path d="M164.478 201.871h-.142l-.402.028-1.483.085-4.894.145h-4.899l-1.483-.042h-.403-.142.545 1.483 4.899l4.894-.118 1.483-.051h.402l.142-.047z"/><path d="M153.487 202.227c-.067-.241-.163-.474-.284-.694a3.66 3.66 0 0 0-.512-.558c.253.093.463.273.592.507.159.215.232.48.204.745zm2.392-1.238c-.023 0-.137-.122-.26-.305s-.204-.347-.18-.361.142.122.26.305.204.347.18.361zm.659-.351s-.152-.066-.294-.188-.241-.239-.222-.263.146.066.289.188.241.239.227.263zm.407-.769a1.01 1.01 0 0 1-.426.06.92.92 0 0 1-.426-.042 1.04 1.04 0 0 1 .421-.056 1 1 0 0 1 .431.038z"/><path d="M157.059 199.329c-.144.077-.302.124-.465.138s-.327-.004-.482-.053a2.59 2.59 0 0 1 .473-.038c.156-.031.315-.047.474-.047zm-1.464.962a1.6 1.6 0 0 1-.526 0c-.189-.019-.377-.057-.559-.113a1.78 1.78 0 0 1-.322-.127c-.063-.035-.11-.091-.133-.159-.008-.039-.006-.079.008-.116s.037-.07.068-.095a.96.96 0 0 1 .647-.083.95.95 0 0 1 .547.35.88.88 0 0 1 .175.343c.024.089.024.14 0 .14a1.33 1.33 0 0 0-.241-.441.95.95 0 0 0-.474-.281c-.102-.033-.21-.046-.318-.037a.8.8 0 0 0-.307.089c-.086.061-.052.154.042.211.096.048.196.089.299.122a4.72 4.72 0 0 0 .54.131l.554.066z"/><path d="M155.458 200.319c-.064-.11-.087-.237-.067-.361.015-.137.064-.267.143-.38.042-.078.104-.145.179-.192a.53.53 0 0 1 .252-.08c.054.01.101.041.132.086s.043.099.034.153a.64.64 0 0 1-.086.23c-.069.115-.152.222-.246.319-.08.095-.183.169-.299.215 0 0 .105-.098.247-.262a2.08 2.08 0 0 0 .218-.315c.071-.112.113-.309 0-.328s-.266.117-.346.225a.84.84 0 0 0-.142.338 1.97 1.97 0 0 0-.019.352zm8.826-.657l-.601.028a2.63 2.63 0 0 0-1.313.554 2.62 2.62 0 0 0-.805 1.158c-.119.347-.128.582-.147.582a.57.57 0 0 1 0-.165c.014-.147.043-.293.085-.436.14-.477.423-.901.811-1.215s.864-.506 1.364-.548c.157-.016.316-.016.474 0 .046.007.09.022.132.042zm-.891-3.353a12.8 12.8 0 0 1 .09 1.66 13.52 13.52 0 0 1 0 1.66 29.42 29.42 0 0 1-.085-3.32h-.005zm-3.017 4.943a6.83 6.83 0 0 1-2.369.052c0-.029.535 0 1.194 0l1.175-.052z"/><path d="M161.967 201.228c0 .024-.042.113-.094.235s-.081.23-.109.23-.043-.127 0-.268.184-.215.203-.197zm.593-.745s-.029.103-.114.187-.166.141-.185.122.029-.103.114-.192.166-.136.185-.117zm.857-.352c0 .028-.114.028-.232.07s-.204.108-.227.09.047-.132.194-.183.275 0 .265.023zm.616-.169c0 .024-.038.066-.104.094s-.133.028-.142 0 .038-.066.104-.094.128-.023.142 0zm-13.46-85.445l3.809 83.78 12.707.268-2.108-70.143 14.289 70.677h12.081l-16.132-84.582"/></g><g class="J"><path d="M178.644 197.96l.289 1.238 12.418.169-.185-1.937-12.522.53z"/><path d="M188.328 197.889c.071 0 .152.132.18.324s0 .356-.061.366-.147-.131-.18-.324-.024-.356.061-.366zm-.474-2.743c.067 0 .176.286.237.666s.062.694 0 .703-.17-.286-.237-.666-.076-.694 0-.703zm-.473-2.743c.066 0 .175.286.236.666s.062.694 0 .703-.175-.286-.236-.666-.067-.671 0-.703zm-.474-2.744c.066 0 .17.286.237.666s.061.694 0 .703-.176-.286-.242-.665-.057-.695.005-.704zm-.474-2.743c.066 0 .175.286.237.666s.061.694 0 .703-.171-.286-.237-.666-.052-.694 0-.703zm-.474-2.744c.067 0 .175.286.242.666s.061.694 0 .704-.175-.286-.242-.666-.047-.694 0-.704zm-.45-2.743c.066 0 .175.286.242.661s.061.699 0 .708-.176-.286-.242-.666-.066-.694 0-.703zm-.469-2.744c.066 0 .175.286.237.666s.066.694 0 .704-.175-.286-.242-.666-.061-.694.005-.704zm-.474-2.743c.067 0 .176.286.242.666s.062.694 0 .703-.175-.286-.242-.666-.066-.694 0-.703zm-.474-2.734c.067 0 .176.286.242.666s.062.694 0 .703-.175-.286-.237-.666-.071-.703-.005-.703zm-.473-2.753c.066 0 .175.286.237.666s.066.694 0 .703-.176-.286-.242-.661-.062-.694.005-.708zm-.479-2.744c.067 0 .176.287.242.666s.062.694 0 .709-.175-.287-.242-.666-.066-.694 0-.709zm-.497-2.738c.066 0 .175.286.241.661s.067.699 0 .708-.175-.286-.241-.666-.052-.694 0-.703zm-.474-2.744c.066 0 .175.286.242.666s.066.694 0 .708-.176-.286-.242-.666-.062-.694 0-.708zm-.474-2.738c.071 0 .18.286.247.661s.066.699 0 .708-.176-.286-.247-.666-.076-.694 0-.703zm-.473-2.739c.066 0 .175.281.246.661s.066.694 0 .708-.175-.286-.246-.666-.091-.694 0-.703zm-.517-2.744c.066 0 .175.286.246.666s.067.694 0 .708-.175-.286-.246-.666-.066-.694 0-.708zm-.497-2.738c.066 0 .175.286.246.665s.071.695 0 .704-.18-.281-.246-.661-.067-.694 0-.708zm-.503-2.734c.067 0 .18.281.247.661s.071.694 0 .708-.176-.286-.247-.666-.066-.694 0-.703zm-.502-2.739c.067 0 .176.286.247.661s.071.694 0 .708-.176-.286-.247-.661-.066-.694 0-.708zm-.511-2.739c.066 0 .18.286.251.666s.071.694 0 .703-.18-.281-.251-.661-.067-.694 0-.708zm-.512-2.734c.066 0 .175.286.246.661s.076.694 0 .708-.18-.286-.251-.661-.066-.694.005-.708zm-.521-2.734c.066 0 .18.281.251.661s.076.694 0 .704-.18-.282-.251-.662-.067-.689 0-.703zm-.526-2.734c.066 0 .18.281.256.661s.075.694 0 .703-.18-.281-.251-.656-.072-.694-.005-.708zm-.531-2.734c.071 0 .185.286.256.661s.081.694 0 .708-.185-.286-.256-.661-.066-.694 0-.708zm-.535-2.73c.066 0 .185.282.256.657s.08.694 0 .708-.18-.281-.256-.661-.057-.69 0-.704zm-.531-2.729c.067 0 .18.281.256.657s.081.694 0 .708-.18-.282-.256-.662-.076-.694 0-.703zm-.559-2.729c.067 0 .185.281.261.656s.08.694 0 .708-.18-.281-.256-.661-.071-.671-.005-.703zm-.554-2.73c.066 0 .18.282.26.657s.086.694 0 .708-.184-.282-.26-.657-.066-.694 0-.708zm-.564-2.729c.066 0 .185.281.261.661s.09.689 0 .703-.18-.281-.261-.656-.066-.694 0-.708zm-.431-2.054c.066 0 .152.131.194.323s0 .352-.047.366-.156-.127-.194-.319-.019-.356.047-.37zM164.9 197.88c.066 0 .128.15.142.342s-.038.357-.109.357-.128-.15-.142-.343.038-.356.109-.356z"/><path d="M164.782 195.085c.066 0 .137.31.151.694s-.028.699-.099.704-.133-.305-.147-.695.028-.698.095-.703zm-.086-2.79c.067 0 .133.309.143.694s-.034.699-.105.703-.132-.309-.142-.694.048-.699.104-.703zm-.057-2.791c.071 0 .133.31.143.694s-.038.699-.105.699-.132-.309-.142-.694.019-.699.104-.699zm-.085-2.795c.071 0 .133.31.142.694s-.037.704-.109.704-.127-.31-.137-.694.038-.704.104-.704zm-.071-2.795c.067 0 .133.31.142.694s-.038.704-.104.704-.133-.31-.142-.694.033-.704.104-.704zm-.094-2.795c.071 0 .137.31.146.694s-.028.704-.094.704-.138-.31-.152-.694.033-.699.1-.704zm-.119-2.79c.071 0 .137.309.152.694s-.024.699-.09.703-.138-.309-.157-.694.029-.698.095-.703zm-.104-2.776c.066 0 .132.309.151.694s-.028.698-.099.703-.133-.309-.147-.694.024-.703.095-.703zm-.105-2.814c.072 0 .133.305.147.694s-.042.713-.099.713-.133-.305-.147-.694.033-.713.099-.713zm-.085-2.786c.067 0 .133.31.142.694s-.033.699-.099.704-.133-.31-.147-.699.038-.699.104-.699zm-.076-2.795c.072 0 .133.31.143.699s-.038.699-.105.699-.132-.31-.142-.694.038-.699.104-.704zm-.056-2.79c.066 0 .127.309.137.694s-.043.699-.109.703-.133-.309-.137-.698.038-.699.109-.699zm-.053-2.795c.071 0 .133.314.138.699s-.043.698-.114.698-.128-.309-.133-.694.043-.703.109-.703zm-.033-2.791c.071 0 .128.31.133.694s-.047.699-.114.699-.128-.309-.132-.694.047-.699.113-.699zm-.019-2.795c.067 0 .123.315.128.699s-.052.699-.118.699-.128-.314-.128-.699.071-.699.118-.699zm-.004-2.795c.066 0 .123.315.123.699s-.057.699-.123.699-.124-.31-.124-.699.053-.699.124-.699zm.004-2.79c.071 0 .123.309.123.699s-.056.698-.127.698-.124-.314-.119-.703.076-.694.123-.694zm.024-2.795c.071 0 .123.314.118.699s-.061.698-.132.698-.119-.314-.114-.698.057-.699.128-.699zm.038-2.795c.066 0 .118.314.114.703s-.067.694-.133.694-.118-.314-.114-.698.062-.699.133-.699zm.047-2.79c.071 0 .119.314.114.698s-.071.699-.137.699-.119-.314-.109-.703.066-.694.132-.694zm.067-2.795c.066 0 .113.314.104.703s-.071.694-.138.694-.118-.314-.109-.703.076-.694.143-.694zm.099-2.795c.066 0 .109.318.095.703s-.085.699-.152.694-.109-.319-.095-.703.086-.694.152-.694zm.152-2.791c.066 0 .099.324.076.708s-.105.69-.171.69-.104-.324-.076-.708.114-.695.171-.69zm.27-2.781c.066 0 .09.324.052.708s-.128.69-.194.68-.09-.319-.053-.703.128-.694.195-.685zm.275-2.077c.066 0 .099.173.071.365s-.105.343-.171.333-.104-.173-.076-.365.105-.343.176-.333zm-10.66 69.922l13.436.216-.104-2.213-13.332.07v1.927zm8.812-83.124a2.54 2.54 0 0 1 .08.511l.128 1.407.323 4.634.151 2.551c-.008.686.075 1.37.246 2.035a1.73 1.73 0 0 0 .849.999c.152.062.311.108.473.136 0 0-.047 0-.137.024-.133-.002-.265-.027-.389-.075-.227-.096-.432-.238-.602-.416a1.77 1.77 0 0 1-.383-.621 7.49 7.49 0 0 1-.308-2.082l-.171-2.551-.251-4.638-.047-1.407a1.84 1.84 0 0 1 .038-.507zm1.303 1.112c0 .033-.104.112-.119.314-.003.052.004.104.021.153a.39.39 0 0 0 .079.133c.047.035.102.057.16.064s.117 0 .171-.022.102-.057.139-.102.06-.099.07-.156c-.003-.052-.016-.104-.038-.151s-.055-.09-.095-.125c-.147-.132-.298-.104-.303-.141s.156-.141.403 0c.097.036.179.102.235.189a.46.46 0 0 1 .071.291.47.47 0 0 1-.387.42.52.52 0 0 1-.316.034c-.106-.022-.203-.076-.276-.156-.054-.064-.092-.14-.11-.222s-.016-.166.006-.247c.076-.267.289-.309.289-.276zm11.958 1.988a2.47 2.47 0 0 1-1.057.399c-.911.175-1.855.07-2.705-.3a4.48 4.48 0 0 1-2.028-1.797 2.38 2.38 0 0 1-.407-1.045c.042 0 .17.394.554.938a4.61 4.61 0 0 0 1.98 1.669 4.67 4.67 0 0 0 2.578.347c.673-.084 1.07-.253 1.085-.211zm-21.13-3.1a1.81 1.81 0 0 1-.048.91c-.17.73-.568 1.389-1.138 1.882a3.61 3.61 0 0 1-2.036.866c-.306.056-.622.03-.914-.075 0-.037.35 0 .89-.094a3.96 3.96 0 0 0 1.895-.881 3.95 3.95 0 0 0 1.133-1.745c.165-.52.175-.863.218-.863z"/></g><path d="M171.443 76.545c-1.114-.394-2.282-.615-3.463-.657a14.01 14.01 0 0 1-8.362 0c-2.567.229-5.105.7-7.581 1.407l-10.612 2.833 3.473 12.887 6.405-2.139s-3.506 23.941-3.444 26.619l28.118-1.834-1.076-13.244-.355-11.494 8.054 1.463 5.411-10.688" class="C"/><g class="B"><path d="M169.088 75.846s-.113.103-.346.249a7.31 7.31 0 0 1-1.037.525 9.75 9.75 0 0 1-1.644.539c-.692.153-1.396.245-2.104.272a11.12 11.12 0 0 1-2.117-.155 9.79 9.79 0 0 1-1.673-.441 7.17 7.17 0 0 1-1.066-.469 1.63 1.63 0 0 1-.365-.225c0-.038.559.239 1.483.53a11.49 11.49 0 0 0 1.658.385 12.48 12.48 0 0 0 2.071.131 12.93 12.93 0 0 0 2.061-.249c.554-.117 1.098-.274 1.629-.469.91-.338 1.431-.661 1.45-.624zm-4.06 11.907a2.19 2.19 0 0 1 .436-.023l1.279-.028 4.629-.056h.109v.108 2.762 1.515a3.23 3.23 0 0 1-.785 1.895 3.29 3.29 0 0 1-1.774 1.054 3.3 3.3 0 0 1-2.206-.272c-.681-.343-1.219-.91-1.522-1.604a3.35 3.35 0 0 1-.242-.938 8.11 8.11 0 0 1 0-.882l.048-2.617v-.694a1.47 1.47 0 0 1 0-.23 1.65 1.65 0 0 1 0 .263v.718l.047 2.579.033.839a3.09 3.09 0 0 0 .242.868c.29.642.796 1.166 1.431 1.481a3.11 3.11 0 0 0 2.056.249 3.06 3.06 0 0 0 1.64-.98 3.01 3.01 0 0 0 .729-1.754v-1.501-2.762l.104.108-4.558-.056-1.307-.028a4.2 4.2 0 0 1-.389-.014z"/><path d="M171.168 88.747s.066-.028.194-.038v.084c-.431.047-1.634.08-3.056.08a21.19 21.19 0 0 1-3.245-.122 22.01 22.01 0 0 1 3.245-.122l3.056.084v.08c-.128 0-.194-.033-.194-.047zm16.089-7.222a1.77 1.77 0 0 1-.199.436l-.625 1.139-2.028 3.752-1.985 3.78-.602 1.144a1.7 1.7 0 0 1-.251.403 1.91 1.91 0 0 1 .161-.446l.536-1.182 1.923-3.817 2.094-3.724.683-1.102a1.99 1.99 0 0 1 .293-.385zm-40.621 10.814a2 2 0 0 1-.222-.469l-.526-1.299-1.573-4.357-1.379-4.422-.369-1.351a1.87 1.87 0 0 1-.1-.507 2.04 2.04 0 0 1 .19.469l.445 1.332 1.45 4.389 1.497 4.376.474 1.327a1.99 1.99 0 0 1 .113.511zm29.488 22.126c0 .066-6.259.469-13.986.938l-14.005.699c-.004-.066 6.259-.493 13.991-.938l14-.699z"/></g><path d="M94.048 76.601l8.604-.825c.108-.961-.062-5.627-.062-5.627s3.506-.328 3.757-3.752.128-11.363.128-11.363c-1.923-.957-4.07-1.389-6.218-1.25s-4.219.842-6.001 2.038l-.54.361.332 20.419z" class="M"/><g class="B"><path d="M104.471 60.834a.5.5 0 0 1-.122-.164c-.028-.062-.044-.13-.045-.199a.49.49 0 0 1 .153-.369.52.52 0 0 1 .173-.11c.065-.024.134-.035.204-.032a.51.51 0 0 1 .362.175.5.5 0 0 1 .121.349c-.006.127-.06.248-.153.337a.51.51 0 0 1-.693.013z"/><path d="M106.096 60.126c-.057.056-.379-.22-.858-.253s-.843.192-.89.131.037-.136.194-.239c.213-.134.463-.196.715-.178a1.18 1.18 0 0 1 .682.277c.143.127.185.239.157.263zm-5.946.108a.5.5 0 0 1 .181.23.49.49 0 0 1 .022.291.5.5 0 0 1-.144.254.51.51 0 0 1-.555.096c-.092-.04-.169-.106-.223-.19a.5.5 0 0 1 .014-.557c.078-.108.196-.181.328-.204s.268.007.378.082z"/><path d="M101.007 60.257c-.061.056-.383-.225-.862-.253s-.843.192-.891.127.038-.131.194-.235a1.19 1.19 0 0 1 .715-.178c.251.018.491.115.682.277.143.127.19.239.161.263zm1.678 4.019a2.52 2.52 0 0 1 .786-.108c.123 0 .228-.028.242-.098.014-.126-.009-.253-.067-.366l-.317-.985a13.96 13.96 0 0 1-.673-2.575 14.11 14.11 0 0 1 .919 2.5l.299.989a.79.79 0 0 1 .038.516.33.33 0 0 1-.223.183.95.95 0 0 1-.213 0 2.39 2.39 0 0 1-.791-.056z"/></g><path d="M102.618 70.101c-1.606-.065-3.156-.602-4.453-1.543 0 0 .919 2.537 4.406 2.434l.047-.891z" class="N"/><path d="M94.408 59.221c-.076-.028-2.577-.347-2.336 2.575s3.146 1.716 3.141 1.632-.805-4.207-.805-4.207z" class="M"/><path d="M94.223 62.476s-.047.042-.133.089c-.119.059-.255.072-.384.038a1.29 1.29 0 0 1-.487-.452 1.27 1.27 0 0 1-.195-.632c-.026-.25.003-.503.085-.741a.59.59 0 0 1 .125-.254c.062-.073.141-.131.23-.168.058-.019.122-.018.18.003a.27.27 0 0 1 .138.114c.043.075.028.136.047.141s.057-.056.024-.173c-.022-.072-.069-.133-.133-.173a.39.39 0 0 0-.289-.052c-.115.036-.219.101-.302.188s-.142.193-.172.309a1.7 1.7 0 0 0-.114.83 1.32 1.32 0 0 0 .244.728 1.34 1.34 0 0 0 .609.473c.083.019.169.018.251-.002a.54.54 0 0 0 .223-.115c.052-.094.066-.145.052-.15z" class="N"/><g class="B"><path d="M97.701 53.153s.441-2.415 5.888-2.078c.751.05 1.465.341 2.034.828a3.43 3.43 0 0 1 1.122 1.873 1.15 1.15 0 0 1 .83.25c.233.188.382.458.416.754a1.67 1.67 0 0 1-.187.857 1.69 1.69 0 0 1-.595.649c-.526.281-1.109.442-1.705.469-3.663.535-6.216-1.557-8.097-1.744s-1.227 1.463-1.227 1.463c.578 3.1-.55 3.897-1.45 5.665h-.474l-.426-2.462a1.87 1.87 0 0 1-.346-.713c-.284-.91-.365-1.876-.682-2.767-.748-2.087.715-3.119.715-3.119s.697-1.158 4.183.075zm5.121 12.136c0 .023-.052.131-.232.22a1 1 0 0 1-.782.023 1.01 1.01 0 0 1-.332-.217 1 1 0 0 1-.222-.327c-.071-.188-.048-.314 0-.319s.18.469.658.638.877-.075.91-.019zm-2.34-6.931c-.034.066-.375-.052-.801 0s-.748.192-.791.136.27-.342.772-.38.858.197.82.244zm4.936-.023c-.033.061-.346-.056-.734-.098s-.72 0-.744-.066.318-.225.768-.173.743.281.71.338z"/><path d="M98.065 51.117c0 .033-.152.028-.332.145a.85.85 0 0 0-.253.314.84.84 0 0 0-.079.394 1.54 1.54 0 0 0 .223.811c.114.192.218.295.199.324s-.171-.033-.341-.225c-.226-.26-.344-.595-.332-.938a.93.93 0 0 1 .13-.495c.089-.15.218-.272.373-.354.256-.089.426-.005.412.024z"/></g><path d="M99.155 200.567v-4.328l-8.192-.085-.095 6.331.507.043c2.26.145 11.498.59 13.014.154 1.711-.487-5.235-2.115-5.235-2.115z" class="C"/><g fill="#000"><path d="M93.858 202.457a2.81 2.81 0 0 0-1.028-1.74c-.531-.434-1.208-.652-1.895-.609l-.028 2.265 2.952.084z" class="K"/><path opacity=".4" d="M102.547 201.482s2.435.722 2.127 1.116-9.665.291-13.786-.113v-.178l10.896.211s.289-1.022.763-1.036z"/></g><g class="B"><path d="M90.774 202.284h.142l.403.028 1.488.08 4.918.14 4.918-.023 1.488-.047h.407.137a.45.45 0 0 0-.137 0h-.407-1.488-4.918c-1.919 0-3.657-.07-4.913-.113l-1.492-.047h-.403a.68.68 0 0 0-.142-.018z"/><path d="M101.808 202.645c.11-.499.393-.944.801-1.257a1.06 1.06 0 0 0-.597.506 1.07 1.07 0 0 0-.204.751zm-2.402-1.238c.024 0 .137-.127.261-.31s.204-.347.18-.361-.142.122-.261.305-.204.347-.18.366zm-.658-.357s.147-.065.289-.187.242-.239.227-.263-.152.066-.294.188-.242.243-.223.262zm-.413-.769a.95.95 0 0 0 .426.056.98.98 0 0 0 .431-.037 1.8 1.8 0 0 0-.858 0v-.019z"/><path d="M98.198 199.737a.84.84 0 0 0 .474.146c.16.025.325.003.474-.061a2.59 2.59 0 0 0-.474-.038 3.01 3.01 0 0 0-.474-.047zm1.492.962a1.5 1.5 0 0 0 .526 0c.192-.021.381-.06.564-.118.112-.029.22-.072.322-.126.063-.035.11-.092.133-.16a.2.2 0 0 0-.076-.211c-.199-.103-.429-.133-.649-.085s-.414.174-.55.353c-.082.102-.142.22-.175.347-.024.089-.024.14 0 .14a1.36 1.36 0 0 1 .242-.445c.128-.137.292-.234.474-.282.206-.067.431-.05.625.047.085.066.052.16-.043.216a2.14 2.14 0 0 1-.298.122 3.3 3.3 0 0 1-.545.131l-.55.071z"/><path d="M99.828 200.727a.51.51 0 0 0 .066-.361c-.015-.137-.064-.267-.142-.38a.52.52 0 0 0-.182-.192.53.53 0 0 0-.254-.08c-.053.012-.099.043-.13.088a.21.21 0 0 0-.036.151c.013.083.044.163.09.234a1.5 1.5 0 0 0 .246.319.71.71 0 0 0 .299.211s-.104-.093-.251-.258c-.082-.098-.154-.205-.213-.318-.071-.108-.118-.31 0-.329s.265.117.341.225a.8.8 0 0 1 .147.338c.016.116.023.234.019.352zm-8.86-.643l.602.028a2.62 2.62 0 0 1 2.127 1.717c.123.347.133.581.152.581a.5.5 0 0 0 0-.164 1.8 1.8 0 0 0-.085-.441 2.5 2.5 0 0 0-.815-1.219c-.392-.31-.869-.5-1.369-.544-.15-.015-.3-.015-.45 0a.41.41 0 0 0-.161.042zm.886-3.367a14.17 14.17 0 0 0-.09 1.665 13.47 13.47 0 0 0 0 1.669 14.12 14.12 0 0 0 .09-1.664 13.41 13.41 0 0 0 0-1.67zm3.047 4.957a4.33 4.33 0 0 0 1.194.131 4.92 4.92 0 0 0 1.199-.079c0-.029-.54 0-1.199 0s-1.194-.08-1.194-.052z"/><path d="M93.295 201.655l.095.235c.052.122.081.23.109.23s.043-.127 0-.268-.185-.215-.204-.197zm-.597-.75a.55.55 0 0 0 .114.188c.081.085.171.14.189.121s-.033-.103-.118-.187-.166-.15-.185-.122zm-.863-.352c0 .028.114.028.232.071s.209.107.227.089-.043-.132-.194-.183-.275 0-.265.023zm-.63-.145c0 .028.038.07.104.094s.133.028.142 0-.038-.066-.104-.094-.118-.047-.142 0z"/></g><path d="M107.745 199.146l1.089-4.192-7.917-2.05-1.658 6.097.474.159c2.156.694 11.001 3.372 12.579 3.321 1.757-.071-4.567-3.335-4.567-3.335z" class="C"/><g fill="#000"><path d="M102.14 199.686c.06-.693-.141-1.383-.564-1.937-.413-.55-1.02-.927-1.701-1.055l-.588 2.19 2.852.802z" class="K"/><path opacity=".4" d="M110.805 200.877s2.179 1.294 1.781 1.599-9.437-2.068-13.327-3.475l.062-.174 10.522 2.861s.493-.933.962-.811z"/></g><g class="B"><path d="M99.188 198.785c.041.024.086.041.133.052l.384.126 1.421.441 4.738 1.327 4.771 1.177 1.454.319.398.08c.047.007.095.007.142 0l-.137-.037-.394-.099-1.421-.352-4.766-1.2-4.738-1.304-1.421-.408-.388-.108c-.058-.011-.117-.016-.175-.014z"/><path d="M109.801 201.815c.123-.221.275-.426.45-.61.195-.162.408-.302.635-.417a1.1 1.1 0 0 0-.706.347c-.207.172-.342.414-.379.68zm-2.014-1.796s.166-.085.327-.235.284-.291.265-.309-.165.084-.331.234-.289.291-.261.31zm-.564-.507c0 .028.161 0 .332-.108s.294-.173.284-.201-.161.028-.331.112-.294.155-.285.197zm-.203-.844c.118.083.254.137.398.159.134.057.281.079.426.066a1 1 0 0 0-.398-.159c-.135-.054-.281-.077-.426-.066z"/><path d="M107.02 198.11a.84.84 0 0 0 .426.253c.148.066.313.087.474.061-.154-.064-.312-.116-.474-.155-.137-.065-.28-.118-.426-.159zm1.208 1.294c.162.072.335.117.511.132.19.025.382.033.574.023a1.86 1.86 0 0 0 .341-.042c.07-.022.13-.066.17-.127.019-.035.027-.074.023-.114s-.02-.076-.046-.106c-.168-.149-.383-.234-.608-.24a.95.95 0 0 0-.619.207c-.106.077-.193.176-.256.291-.043.079-.057.131-.048.136a1.33 1.33 0 0 1 .346-.371c.15-.101.326-.158.507-.164a.82.82 0 0 1 .319.039.81.81 0 0 1 .278.158c.066.084 0 .169-.095.197a1.47 1.47 0 0 1-.317.047 3.79 3.79 0 0 1-.564 0l-.516-.066z"/><path d="M108.356 199.47c.088-.09.141-.208.151-.333.017-.138.002-.277-.042-.408a.51.51 0 0 0-.128-.23.52.52 0 0 0-.228-.136.21.21 0 0 0-.148.052c-.041.036-.066.086-.07.14a.52.52 0 0 0 .029.244c.035.13.088.255.156.371.055.111.137.207.237.281 0 0-.076-.117-.175-.314a2.11 2.11 0 0 1-.133-.361c-.038-.122-.038-.328.1-.314s.222.178.274.3a.79.79 0 0 1 .057.366 2.12 2.12 0 0 1-.08.342zm-8.433-2.786s.236.038.582.174c.453.174.847.471 1.136.856a2.53 2.53 0 0 1 .499 1.324c.028.371 0 .596 0 .601.022-.051.036-.105.042-.16a2.21 2.21 0 0 0 .029-.445c-.017-.496-.182-.976-.474-1.379-.3-.399-.714-.7-1.189-.863-.143-.049-.291-.083-.441-.103-.06-.014-.123-.015-.184-.005zm1.705-3.048a16.38 16.38 0 0 0-.474 1.594 14.84 14.84 0 0 0-.407 1.618c.199-.521.367-1.053.502-1.594.161-.531.288-1.071.379-1.618zm1.715 5.548c.354.188.732.328 1.123.417.383.124.782.195 1.184.211 0-.028-.521-.131-1.156-.305l-1.151-.323z"/><path d="M101.789 198.776c-.024 0 0 .117.033.248s.024.244.052.249.076-.113.048-.263-.109-.248-.133-.234zm-.393-.877s0 .108.066.211.128.178.152.164 0-.108-.066-.211-.128-.178-.152-.164zm-.749-.549c0 .028.105.056.214.127s.17.155.194.14 0-.136-.142-.225-.266-.07-.266-.042zm-.554-.309s0 .07.081.112.118.061.132.038 0-.071-.075-.113-.119-.061-.138-.037z"/></g><path d="M111.89 111.811c-1.17.828-2.289 1.725-3.35 2.687-1.004.91.981 6.308 2.071 5.356s4.069-4.69 4.069-4.69l-2.79-3.353z" class="M"/><path d="M110.455 119.947s3.098-.347 3.008-.98c-.139-.523-.402-1.005-.767-1.407l-2.241 2.387z" class="N"/><path d="M111.677 116.515l-9.641-.718-15.858-1.247 1.895 84.287 13.764-.197-.034-2.584 8.055 2.171 10.489-37.104c2.245-9.019-8.67-44.608-8.67-44.608zm-10.049 66.433l-.251-56.585s7.708 29.113 7.789 31.421c.042 1.388-4.188 14.838-7.538 25.164z" class="B"/><g class="J"><path d="M101.917 195.437c0 .075-3.079.14-6.874.145s-6.879-.051-6.879-.122 3.079-.14 6.874-.145l6.879.122zm-.123-3.03a8.16 8.16 0 0 1 1.26.399l3.151 1.083 3.15 1.084a7.58 7.58 0 0 1 1.294.501 6.74 6.74 0 0 1-1.351-.319l-3.183-1.013-3.132-1.158c-.422-.136-.822-.33-1.189-.577z"/><path d="M101.595 181.246c.038.218.052.44.043.661l.028 1.796.095 5.928.175 5.923.052 1.796a3.65 3.65 0 0 1 0 .661c-.051-.215-.08-.435-.085-.656l-.133-1.792-.241-5.927-.029-5.933.052-1.801c-.007-.219.007-.439.043-.656zm12.545-23.73c-.85.195-1.718.305-2.591.328-.867.113-1.744.135-2.615.066a12.61 12.61 0 0 1 2.596-.333c.866-.11 1.741-.13 2.61-.061z"/><path d="M113.25 159.045c-.68-.053-1.349-.197-1.99-.427-.659-.143-1.297-.372-1.895-.68a7.57 7.57 0 0 1 1.985.422 7.82 7.82 0 0 1 1.9.685zM102.225 115.9a11.23 11.23 0 0 1 .076 1.609v3.873l-.029 2.134c.017.596-.092 1.189-.322 1.74a2.31 2.31 0 0 1-.772.938.95.95 0 0 1-.403.188 4.2 4.2 0 0 1 .346-.263c.294-.247.523-.561.668-.915a4.17 4.17 0 0 0 .256-1.674v-2.129l.062-3.878c-.004-.543.036-1.086.118-1.623zM113.7 80.057l10.499 11.673c3.084 3.691 2.492 8.605.047 12.741-2.593 4.216-5.609 8.161-9.002 11.776-.047.066-4.24-5.806-4.24-5.806s6.486-10.275 5.444-12.624-8.054-10.908-8.054-10.908l5.306-6.852z"/><path d="M110.54 89.554l.308 15.808 1.241 11.256L85.771 115l1.379-13.131-1.346-13.835-7.31-6.097 1.459-1.843c3.264-3.888 8.878-6.317 13.981-6.495 0 0 1.113 1.806 5.339 1.876 2.957.056 3.516-1.904 3.516-1.904 1.966.122 7.376 1.036 11.574 7.213"/><path d="M80.891 79.288L70.43 91.012c-3.075 3.705-2.468 8.61 0 12.742 3.738 6.284 10.665 13.52 10.603 13.464s4.354-5.445 4.354-5.445-8.244-12.366-7.206-14.716 8.708-10.031 8.708-10.031l-5.998-7.738z"/></g><g class="B"><use xlink:href="#D"/><use xlink:href="#E"/><use xlink:href="#F"/><use xlink:href="#G"/><use xlink:href="#H"/><use xlink:href="#I"/><use xlink:href="#J"/><use xlink:href="#K"/><use xlink:href="#L"/><use xlink:href="#M"/><use xlink:href="#N"/><use xlink:href="#O"/></g><g class="E"><use xlink:href="#P"/><use xlink:href="#Q"/><use xlink:href="#R"/><use xlink:href="#S"/><use xlink:href="#T"/><use xlink:href="#U"/><use xlink:href="#V"/><use xlink:href="#W"/><use xlink:href="#X"/><use xlink:href="#Y"/><use xlink:href="#Z"/><use xlink:href="#a"/><use xlink:href="#b"/><use xlink:href="#c"/><use xlink:href="#d"/><use xlink:href="#e"/><use xlink:href="#f"/><use xlink:href="#g"/><use xlink:href="#h"/><use xlink:href="#i"/><use xlink:href="#j"/><use xlink:href="#k"/><use xlink:href="#l"/><use xlink:href="#m"/><use xlink:href="#n"/><use xlink:href="#o"/><use xlink:href="#p"/><use xlink:href="#q"/><use xlink:href="#r"/><use xlink:href="#s"/><use xlink:href="#t"/><use xlink:href="#u"/><use xlink:href="#v"/><use xlink:href="#w"/></g><g class="B"><use xlink:href="#D"/><use xlink:href="#E"/><use xlink:href="#F"/><use xlink:href="#G"/><use xlink:href="#H"/><use xlink:href="#I"/><use xlink:href="#J"/><use xlink:href="#K"/><use xlink:href="#L"/><use xlink:href="#M"/><use xlink:href="#N"/><use xlink:href="#O"/></g><g class="E"><use xlink:href="#P"/><use xlink:href="#Q"/><use xlink:href="#R"/><use xlink:href="#S"/><use xlink:href="#T"/><use xlink:href="#U"/><use xlink:href="#V"/><use xlink:href="#W"/><use xlink:href="#X"/><use xlink:href="#Y"/><use xlink:href="#Z"/><use xlink:href="#a"/><use xlink:href="#b"/><use xlink:href="#c"/><use xlink:href="#d"/><use xlink:href="#e"/><use xlink:href="#f"/><use xlink:href="#g"/><use xlink:href="#h"/><use xlink:href="#i"/><use xlink:href="#j"/><use xlink:href="#k"/><use xlink:href="#l"/><use xlink:href="#m"/><use xlink:href="#n"/><use xlink:href="#o"/><use xlink:href="#p"/><use xlink:href="#q"/><use xlink:href="#r"/><use xlink:href="#s"/><use xlink:href="#t"/><use xlink:href="#u"/><use xlink:href="#v"/><use xlink:href="#w"/></g><path d="M84.345 112.866c1.174.824 2.295 1.718 3.359 2.678 1.009.905-.948 6.307-2.051 5.36s-4.084-4.69-4.084-4.69l2.776-3.348z" class="M"/><path d="M85.809 120.998s-3.099-.338-3.013-.971a3.42 3.42 0 0 1 .763-1.407l2.25 2.378z" class="N"/><use xlink:href="#x" class="C"/><use xlink:href="#x" opacity=".09" class="E"/><path d="M112.577 25.732l2.615.094c.052-.001.103.009.151.028.068.019.126.062.165.119s.056.127.049.195c-.001.043-.013.085-.034.122-.033.06-.081.11-.14.146s-.127.055-.196.056l-2.345-.07-.379 2.19 1.691.061c.063.001.124.015.18.042a.31.31 0 0 1 .146.125c.034.055.049.12.044.185-.001.037-.009.074-.024.108a.38.38 0 0 1-.141.151c-.06.036-.129.056-.2.056l-1.8-.066-.346 2.049 2.321.085a.56.56 0 0 1 .176.033.32.32 0 0 1 .151.125c.036.056.052.123.048.189.006.034.006.069 0 .103a.37.37 0 0 1-.14.159c-.062.038-.134.058-.206.056l-2.71-.099a.33.33 0 0 1-.185-.056c-.052-.04-.092-.093-.118-.152s-.036-.125-.029-.19c0-.041.316-1.885.948-5.534.005-.039.016-.077.033-.113.021-.056.059-.104.107-.139a.31.31 0 0 1 .168-.058z" class="B"/><path d="M129.893 22.248s6.486 23.35 9.409 22.979c3.79-.469 14.858-21.38 14.858-21.38l-24.267-1.599z" class="C"/><path d="M141.993 35.177l-2.738.141c-.062.005-.123-.01-.176-.042-.098-.083-.161-.201-.175-.328 0-.112.158-1.976.474-5.59-.002-.039-.002-.078 0-.117.015-.042.04-.08.071-.112s.068-.057.109-.075a.33.33 0 0 1 .131-.025c.044.001.089.01.13.028.054.023.101.062.134.111s.05.107.05.166c0 .244-.047.755-.104 1.529l-.289 3.775 2.326-.122c.058-.01.118-.01.176 0 .064.017.12.055.161.108s.062.117.061.183a.28.28 0 0 1 0 .108c-.023.073-.068.137-.129.184a.38.38 0 0 1-.212.078z" class="B"/><use xlink:href="#y" class="C"/><use xlink:href="#y" opacity=".09" class="E"/><path d="M169.268 30.835a1.93 1.93 0 0 0-.275-.361.9.9 0 0 0-.341-.247.92.92 0 0 0-.417-.068.86.86 0 0 0-.473.253c-.334.358-.558.802-.65 1.28a4.45 4.45 0 0 0-.118 1.731 3.06 3.06 0 0 0 .45 1.28.89.89 0 0 0 .364.366.9.9 0 0 0 .508.103c.183-.043.349-.141.474-.281a2.69 2.69 0 0 0 .625-1.069c-.003-.017-.003-.035 0-.052a.29.29 0 0 1 .246-.197.33.33 0 0 1 .166 0 .31.31 0 0 1 .14.1c.036.046.058.101.064.158.01.053.01.107 0 .159a3.44 3.44 0 0 1-.474 1.018c-.132.212-.308.395-.516.535s-.444.236-.692.281h-.18a1.47 1.47 0 0 1-.634-.162c-.196-.101-.366-.244-.498-.42-.4-.496-.648-1.095-.716-1.726a4.8 4.8 0 0 1 0-1.323c.07-.654.29-1.283.645-1.838.128-.23.306-.429.52-.584a1.84 1.84 0 0 1 .721-.312c.2-.029.404-.013.597.047a1.89 1.89 0 0 1 1.028.938.36.36 0 0 1 .052.145c.016.054.016.111 0 .164s-.055.1-.1.135-.099.058-.156.066a.4.4 0 0 1-.196-.015c-.063-.021-.119-.058-.164-.107z" class="B"/><path d="M181.956 23.34s9.906 22.145 12.744 21.371c3.658-1.027 11.494-23.326 11.494-23.326l-24.238 1.956z" class="C"/><path d="M192.251 32.457c-.089-.44-.117-.889-.081-1.337.031-.659.22-1.302.55-1.876.115-.23.28-.433.482-.595s.436-.279.688-.343a1.41 1.41 0 0 1 .656.036 1.39 1.39 0 0 1 .566.33c.444.419.753.96.886 1.552l.351-.248a1.34 1.34 0 0 1 .474-.263c.049-.014.102-.014.151 0s.098.043.133.082.061.087.071.139c.012.111-.017.222-.081.314-.249.296-.577.517-.947.638a5.05 5.05 0 0 1 .024.886 4.12 4.12 0 0 1-.541 1.904c-.121.231-.29.435-.497.597a1.87 1.87 0 0 1-.701.341h-.18a1.48 1.48 0 0 1-.65-.101c-.206-.082-.39-.209-.539-.372a3.32 3.32 0 0 1-.815-1.684zm.654-.249a3.51 3.51 0 0 0 .473 1.21c.285.441.611.624.972.549.098-.019.191-.06.27-.122.317-.271.54-.633.639-1.036a4.41 4.41 0 0 0 .213-1.721 2.01 2.01 0 0 1-1.151-.113c-.511-.215-.931-.597-1.189-1.083a4.01 4.01 0 0 0-.227 2.317zm1.26-3.212c-.066.013-.128.042-.18.084a.53.53 0 0 0-.134.253c-.021.095-.016.194.015.286a.92.92 0 0 0 .043.136c.063.149.159.282.28.39s.265.188.421.234a1.44 1.44 0 0 0 .749.089 3.66 3.66 0 0 0-.228-.624c-.279-.61-.601-.896-.966-.849z" class="B"/><use xlink:href="#z" class="C"/><use xlink:href="#z" opacity=".09" class="E"/><path d="M223.861 29.507a.31.31 0 0 1 .016.124c-.004.042-.016.083-.036.12a.3.3 0 0 1-.081.097.31.31 0 0 1-.112.057c-.059.017-.122.017-.18 0a.39.39 0 0 1-.165-.108c-.045-.049-.076-.109-.091-.174 0-.041-.212-1.135-.635-3.283l-.474 3.499-.043.305c-.005.07-.029.137-.071.193a.38.38 0 0 1-.165.125h-.076c-.067.001-.134-.016-.192-.049s-.107-.081-.14-.139l-1.72-3.062.559 3.377a.29.29 0 0 1 .018.124.3.3 0 0 1-.035.12c-.02.037-.048.07-.082.095s-.072.044-.114.054a.28.28 0 0 1-.175 0c-.065-.019-.123-.054-.169-.103s-.077-.109-.092-.174c0-.028-.265-1.468-.772-4.329l-.208-1.196c-.008-.048-.008-.097 0-.145.013-.058.042-.111.084-.153s.095-.072.153-.086h.09a.25.25 0 0 1 .14.023c.044.021.081.054.106.095l1.303 2.345 1.009 1.824.706-5.009c-.004-.031-.004-.063 0-.094a.37.37 0 0 1 .091-.142c.041-.04.091-.07.146-.087a.35.35 0 0 1 .243.027c.075.038.133.102.164.179 0 .075.029.164.052.267l.948 5.281z" class="B"/><path d="M232.971 15.907s13.74 20.039 16.388 18.759c3.416-1.655 7.107-24.982 7.107-24.982l-23.495 6.223z" class="C"/><path d="M244.427 19.237l2.431-.966a.59.59 0 0 1 .146-.033c.07-.009.141.006.2.043s.105.093.127.159a.27.27 0 0 1 0 .127.39.39 0 0 1-.069.189.4.4 0 0 1-.153.13l-2.184.863.554 2.153 1.596-.638c.059-.022.122-.033.185-.033a.32.32 0 0 1 .185.055c.054.037.096.09.118.151a.28.28 0 0 1 0 .108c-.004.07-.027.138-.067.195s-.095.104-.16.133l-1.682.675.545 1.998 2.156-.854c.053-.023.111-.036.17-.038a.34.34 0 0 1 .229.087c.062.056.1.134.108.217a.38.38 0 0 1-.061.202c-.04.06-.096.107-.162.136l-2.511 1.013a.35.35 0 0 1-.194 0 .39.39 0 0 1-.171-.092.38.38 0 0 1-.104-.162c0-.037-.474-1.848-1.421-5.431a.33.33 0 0 1 0-.117c0-.059.019-.116.052-.165s.082-.086.137-.107z" class="B"/><path d="M77.83 11.912s2.445 24.095 5.392 24.217c3.8.141 18.264-18.618 18.264-18.618L77.83 11.912z" class="C"/><path d="M85.207 20.363c.054.005.105.027.147.061s.082.078.105.13a.31.31 0 0 1 .023.165l-.573 2.021-.54 2.031c-.104.685 0 1.05.365 1.107.295.042.596.018.881-.07a4.73 4.73 0 0 1 .028-1.163c.042-.295.107-.587.194-.872.275-.863.715-1.247 1.317-1.158a.95.95 0 0 1 .592.314 1.06 1.06 0 0 1 .21.419c.038.153.04.313.008.468 0 .089-.033.188-.057.281a3.54 3.54 0 0 1-.91 1.618c-.154.179-.338.329-.545.445 0 .075.081.122.209.141.332.027.665-.023.974-.147s.584-.318.803-.566c.558-.56 1.013-1.213 1.346-1.927a2.01 2.01 0 0 1-1.123-.553c-.148-.161-.257-.355-.317-.565s-.07-.431-.029-.645a1.12 1.12 0 0 1 .178-.452 1.14 1.14 0 0 1 .353-.336 1.22 1.22 0 0 1 .824-.178 1.33 1.33 0 0 1 .491.162 1.32 1.32 0 0 1 .391.335c.12.166.205.354.249.553s.046.405.007.605c0 .103-.047.272-.104.502.062-.005.124-.014.185-.028a2.72 2.72 0 0 0 .583-.187c.124-.065.263-.096.403-.089.042.005.082.023.114.052.045.032.08.076.1.126a.28.28 0 0 1 .014.16c-.024.159-.185.296-.474.408-.375.141-.774.206-1.175.192-.334.803-.816 1.538-1.421 2.167a2.95 2.95 0 0 1-1.169.823 2.98 2.98 0 0 1-1.423.18h-.076c-.244-.053-.457-.2-.592-.408-.413.137-.853.174-1.284.108-.222-.029-.426-.137-.573-.305-.146-.227-.243-.482-.283-.749s-.025-.538.046-.799a11.68 11.68 0 0 1 .474-1.876l.474-1.576-.696.3a1.65 1.65 0 0 1-.502.169c-.044-.005-.086-.019-.124-.041a.32.32 0 0 1-.098-.087c-.026-.035-.045-.075-.055-.118s-.011-.087-.003-.13c.014-.061.044-.117.085-.165s.093-.084.152-.107l.104-.047c.539-.308 1.118-.543 1.72-.699zm1.033 5.121a1.42 1.42 0 0 0 .317-.253c.385-.38.634-.874.711-1.407v-.075c0-.225-.066-.352-.261-.38s-.284.098-.422.342a3.51 3.51 0 0 0-.322 1.097 4.12 4.12 0 0 0-.024.675zm2.734-3.367a.66.66 0 0 0 .038.361c.128.319.474.516 1.033.6a3.66 3.66 0 0 0 .156-.591c.017-.113.017-.229 0-.342a.55.55 0 0 0-.149-.332.56.56 0 0 0-.325-.169c-.129-.024-.262-.011-.384.037-.095.03-.179.086-.244.16s-.108.165-.125.262v.014z" class="B"/><path d="M279.33 2.035l-.573.234-1.682.661-2.739 1.074-1.748.68-2.009.722-4.737 1.702-5.686 1.876-3.179.999-3.392 1.032-1.772.535-1.828.511-3.791 1.055a315.13 315.13 0 0 1-37.176 7.592c-7.107.971-14.545 1.792-22.306 2.345s-15.814.802-24.062.769l-6.159-.075-6.065-.22-1.501-.056-1.498-.089-2.975-.183-2.951-.178-2.919-.244-5.761-.516-5.638-.614c-1.857-.211-3.69-.469-5.505-.718l-2.705-.366-2.663-.422c-7.073-1.05-13.739-2.439-19.936-3.785-6.187-1.444-11.93-2.903-17.103-4.446l-3.79-1.121c-1.232-.356-2.411-.774-3.572-1.144l-6.514-2.185-5.624-2.026-4.686-1.82-1.99-.783-1.725-.727L48.656.957 46.998.249 46.434 0a17.17 17.17 0 0 0 .573.225l1.672.685 2.715 1.126 1.729.722c.621.253 1.289.497 1.995.769l4.686 1.791c1.72.647 3.61 1.285 5.628 2.007s4.207 1.407 6.519 2.167c1.161.366 2.34.778 3.577 1.13l3.79 1.116c5.178 1.552 10.939 2.983 17.098 4.422 6.212 1.337 12.859 2.715 19.927 3.752l2.663.422 2.705.361 5.501.718 5.633.61c1.895.211 3.823.338 5.756.511l2.919.244 2.946.178 2.976.178 1.492.089 1.502.056 6.064.22 6.159.075a342.24 342.24 0 0 0 24.049-.764c7.755-.516 15.208-1.379 22.267-2.345a317.27 317.27 0 0 0 37.153-7.527l3.79-1.051 1.895-.506 1.772-.525 3.392-1.022 3.179-.99 5.686-1.876 4.737-1.684 2.014-.713 1.753-.671 2.743-1.046 1.691-.642.55-.178z" class="J"/><path d="M212.254 56.182c-.139.037-.285.045-.427.023a1.72 1.72 0 0 1-1.066-.6c-.791-.793-.663-2.814.858-4.042a1.27 1.27 0 0 1 .734-.197 1.04 1.04 0 0 1 .73.31.93.93 0 0 1 .194.375.91.91 0 0 1 .009.422c-.062.281-.197.542-.393.755a3.03 3.03 0 0 1-1.604.834 3.05 3.05 0 0 1-1.798-.224 2.64 2.64 0 0 1-1.383-1.369c-.281-.635-.341-1.344-.17-2.017a2.85 2.85 0 0 1 .44-.938 1.86 1.86 0 0 1 .839-.689 1.02 1.02 0 0 1 .573-.061.72.72 0 0 1 .273.116c.081.057.15.131.201.217.086.173.131.364.131.558s-.045.385-.131.558a3.17 3.17 0 0 1-1.547 1.472 3.21 3.21 0 0 1-2.139.164 3.03 3.03 0 0 1-1.635-1.215 3.16 3.16 0 0 1-.549-1.876 2.25 2.25 0 0 1 .197-.921c.129-.29.319-.55.556-.763a1.43 1.43 0 0 1 .858-.314 1.1 1.1 0 0 1 .451.071 1.08 1.08 0 0 1 .382.248c.184.219.296.487.322.77a1.4 1.4 0 0 1-.175.815 1.87 1.87 0 0 1-.543.542 1.91 1.91 0 0 1-.717.283c-.459.091-.934.062-1.379-.084-.392-.13-.754-.336-1.066-.605a3.2 3.2 0 0 1-.696-.802 3.26 3.26 0 0 1-.374-.807c-.125-.394-.164-.809-.114-1.219a2.71 2.71 0 0 1 .09-.417s-.029.145-.057.422a2.89 2.89 0 0 0 .142 1.196 3.37 3.37 0 0 0 .379.783 3.27 3.27 0 0 0 .687.778 3.14 3.14 0 0 0 1.042.572 2.61 2.61 0 0 0 1.322.066c.24-.039.468-.128.67-.262a1.71 1.71 0 0 0 .501-.512c.124-.22.178-.473.154-.724s-.124-.489-.287-.683a1.14 1.14 0 0 0-1.502 0 2.12 2.12 0 0 0-.514.715c-.119.271-.18.564-.178.86-.015.631.171 1.251.531 1.773.365.55.91.957 1.544 1.154a3.06 3.06 0 0 0 2.026-.161 3.01 3.01 0 0 0 1.466-1.392c.074-.151.112-.316.112-.483s-.038-.332-.112-.483c-.041-.067-.095-.124-.16-.168a.58.58 0 0 0-.214-.09.85.85 0 0 0-.474.052 1.7 1.7 0 0 0-.767.633 2.65 2.65 0 0 0-.417.905 2.95 2.95 0 0 0 .156 1.918c.252.58.718 1.042 1.303 1.294a2.92 2.92 0 0 0 1.709.22 2.9 2.9 0 0 0 1.531-.782c.178-.196.304-.433.365-.689a.79.79 0 0 0-.003-.364.8.8 0 0 0-.167-.325c-.169-.171-.399-.269-.64-.272-.235-.013-.469.048-.668.174a2.54 2.54 0 0 0-.857.994 3.88 3.88 0 0 0-.408 1.116c-.076.309-.08.632-.012.943a2.1 2.1 0 0 0 .405.853 1.72 1.72 0 0 0 1.019.605c.147.009.294.006.441-.009zm-69.446 55.38s-.038.028-.113.066l-.351.178c-.442.231-.87.49-1.279.774a11.18 11.18 0 0 0-3.577 4.075 7.88 7.88 0 0 0-.948 3.588c.005.69.191 1.367.54 1.965.36.633.934 1.122 1.621 1.379.347.132.727.158 1.089.075a1.1 1.1 0 0 0 .49-.216c.142-.112.254-.257.325-.422.05-.175.049-.361-.002-.536a.98.98 0 0 0-.287-.454 1.72 1.72 0 0 0-1.047-.469 6.65 6.65 0 0 0-1.246 0 9.83 9.83 0 0 0-1.265.193 6.94 6.94 0 0 0-2.369.961c-1.449.938-2.369 2.711-1.966 4.296.089.383.263.743.509 1.052a2.71 2.71 0 0 0 .913.739c.34.157.72.208 1.09.145a1.85 1.85 0 0 0 .98-.497 1.4 1.4 0 0 0 .474-.938 1.51 1.51 0 0 0-.285-.97c-.199-.274-.462-.496-.766-.648a2.14 2.14 0 0 0-.982-.225 4.07 4.07 0 0 0-1.795.446 4.01 4.01 0 0 0-1.403 1.196c-.639.819-.937 1.849-.834 2.879a4.4 4.4 0 0 0 .627 1.784 4.44 4.44 0 0 0 1.321 1.363c.284.188.473.258.445.272a2.33 2.33 0 0 1-.474-.23c-.434-.261-.816-.598-1.127-.994a4.39 4.39 0 0 1-.948-2.181 4.27 4.27 0 0 1 .184-1.739c.181-.561.476-1.079.867-1.523a4.34 4.34 0 0 1 1.407-1.057c.537-.254 1.121-.396 1.716-.417.373-.009.742.072 1.076.235s.623.405.843.703c.235.32.352.711.331 1.106-.034.407-.218.788-.516 1.07-.3.288-.679.484-1.09.562a2.06 2.06 0 0 1-1.241-.159c-.388-.19-.728-.464-.996-.8a2.87 2.87 0 0 1-.553-1.146 3.83 3.83 0 0 1 .303-2.556 4.91 4.91 0 0 1 1.758-1.998c.755-.483 1.596-.822 2.478-.999.426-.091.858-.155 1.293-.192a6.7 6.7 0 0 1 1.298 0c.446.035.867.223 1.189.53a1.21 1.21 0 0 1 .341 1.233 1.28 1.28 0 0 1-.39.519c-.172.137-.377.228-.595.264a2.06 2.06 0 0 1-1.218-.084 3.31 3.31 0 0 1-1.734-1.482c-.364-.629-.555-1.342-.554-2.068.033-1.284.375-2.541 1-3.667.856-1.645 2.119-3.049 3.671-4.08a7.99 7.99 0 0 1 1.772-.901zm-87.453-18.28a2.36 2.36 0 0 1-.294-.281 3.95 3.95 0 0 1-.644-.976c-.261-.566-.399-1.179-.407-1.801a4.19 4.19 0 0 1 .697-2.345 17.03 17.03 0 0 1 1.933-2.256 9.12 9.12 0 0 0 1-1.29 4.06 4.06 0 0 0 .606-1.59 3.25 3.25 0 0 0-.27-1.745 7.66 7.66 0 0 0-1.004-1.599l-1.232-1.562c-.412-.556-.745-1.165-.99-1.81a4.51 4.51 0 0 1-.27-2.045c.083-.675.363-1.313.805-1.834.427-.519 1.04-.855 1.71-.938a1.54 1.54 0 0 1 .947.192c.141.088.258.209.34.352a1 1 0 0 1 .134.469.89.89 0 0 1-.15.456.9.9 0 0 1-.366.314 1.18 1.18 0 0 1-.442.131 1.21 1.21 0 0 1-.459-.047 2.84 2.84 0 0 1-1.336-1.013c-.611-.798-1.004-1.738-1.142-2.729a8.82 8.82 0 0 1 0-2.439 15.32 15.32 0 0 1 .336-1.815l.289-1.126.085-.291c.006-.034.018-.067.033-.099v.103c0 .066-.038.173-.066.295l-.256 1.13a17.33 17.33 0 0 0-.303 1.81c-.094.802-.078 1.613.047 2.41a5.73 5.73 0 0 0 1.137 2.654c.311.439.749.774 1.255.961.263.075.545.047.787-.08a.74.74 0 0 0 .301-.256.73.73 0 0 0 .125-.373.84.84 0 0 0-.118-.39.85.85 0 0 0-.289-.29 1.37 1.37 0 0 0-.848-.164 2.46 2.46 0 0 0-1.592.877 3.32 3.32 0 0 0-.763 1.745 4.31 4.31 0 0 0 .265 1.96 7.36 7.36 0 0 0 .948 1.768l1.227 1.562a7.71 7.71 0 0 1 1.023 1.637 3.48 3.48 0 0 1 .28 1.834 4.25 4.25 0 0 1-.64 1.646 9.17 9.17 0 0 1-1.023 1.308c-.708.684-1.355 1.428-1.933 2.223-.454.67-.7 1.458-.706 2.265a4.45 4.45 0 0 0 .37 1.773c.156.353.362.683.611.98l.251.324z" class="B"/><g class="C"><path d="M57.567 43.436c-4.226-.558-7.339 1.632-8.727 4.976s-.706 7.26 1.056 10.425c.976 1.759 2.44 3.452 4.43 3.855.821.127 1.661.076 2.46-.15s1.539-.621 2.169-1.159a12.4 12.4 0 0 0 3.004-3.893c1.398-2.579 2.236-5.496 1.895-8.404-.279-2.551-2.923-5.271-6.301-5.628"/><path d="M54.971 62.419c-.156.216-.497.971-.616 1.205a.42.42 0 0 0-.07.174c-.01.063-.005.126.013.187.037.061.094.106.162.129a.3.3 0 0 0 .208-.007c.133-.057.249-.148.336-.263a.4.4 0 0 0 .054.159c.029.049.068.091.114.124a.41.41 0 0 0 .325.066.41.41 0 0 0 .154-.07c.046-.034.084-.076.112-.126a.4.4 0 0 0 .032-.327.77.77 0 0 0 .317.272c.033.012.069.018.104.015s.07-.012.101-.028a.25.25 0 0 0 .081-.067c.022-.028.038-.059.046-.094-.006-.09-.045-.175-.109-.239l-.834-1.036"/></g><path d="M278.866 138.912a2.3 2.3 0 0 1-.294-.281c-.262-.292-.479-.621-.644-.975a4.44 4.44 0 0 1-.408-1.801c-.005-.833.239-1.649.701-2.345.575-.806 1.22-1.561 1.929-2.256a9.11 9.11 0 0 0 .999-1.29 4.04 4.04 0 0 0 .607-1.589 3.26 3.26 0 0 0-.27-1.745 7.68 7.68 0 0 0-1.005-1.599l-1.232-1.562c-.412-.555-.745-1.164-.99-1.81a4.51 4.51 0 0 1-.27-2.045c.083-.676.365-1.314.81-1.833.426-.518 1.037-.854 1.706-.938.328-.04.661.028.947.192.141.088.258.209.34.352s.129.304.134.469c-.007.162-.059.32-.15.455s-.218.244-.366.314a1.21 1.21 0 0 1-.9.089 2.84 2.84 0 0 1-1.332-1.018c-.61-.798-1.004-1.738-1.146-2.729a8.59 8.59 0 0 1 0-2.439c.076-.61.187-1.216.331-1.815l.289-1.125.086-.291c.006-.034.017-.067.033-.098.004.034.004.069 0 .103l-.066.295-.256 1.131a17.57 17.57 0 0 0-.304 1.81c-.094.802-.078 1.612.048 2.41.145.968.536 1.883 1.137 2.659.315.429.752.756 1.255.938.263.075.545.047.787-.08a.73.73 0 0 0 .426-.628c-.006-.138-.046-.272-.117-.391s-.171-.218-.29-.289a1.37 1.37 0 0 0-.848-.164c-.623.079-1.192.393-1.587.877a3.29 3.29 0 0 0-.768 1.744 4.33 4.33 0 0 0 .265 1.965c.234.628.553 1.221.948 1.764l1.227 1.561c.409.501.753 1.051 1.023 1.637a3.47 3.47 0 0 1 .28 1.834c-.095.586-.311 1.146-.635 1.646-.303.465-.647.903-1.028 1.308-.708.684-1.355 1.428-1.933 2.223-.454.67-.7 1.458-.706 2.265a4.37 4.37 0 0 0 .374 1.773c.156.353.36.683.607.98l.256.342z" class="B"/><g class="J"><path d="M281.054 89.071c-4.226-.563-7.333 1.627-8.726 4.971s-.706 7.259 1.056 10.425c.976 1.758 2.44 3.451 4.43 3.855a5.8 5.8 0 0 0 2.462-.15 5.75 5.75 0 0 0 2.171-1.159 12.44 12.44 0 0 0 2.999-3.892c1.422-2.579 2.237-5.496 1.895-8.404-.284-2.551-2.927-5.266-6.305-5.628"/><path d="M278.482 108.05c-.156.215-.474.97-.616 1.21-.035.051-.058.11-.068.172s-.006.124.011.184c.038.061.096.107.165.129s.143.02.21-.007c.131-.058.245-.149.331-.263a.4.4 0 0 0 .054.159.41.41 0 0 0 .27.191.42.42 0 0 0 .169-.001c.056-.013.108-.036.154-.07a.4.4 0 0 0 .113-.126c.028-.049.045-.103.051-.16a.39.39 0 0 0-.02-.166c.079.118.189.212.318.272a.26.26 0 0 0 .104.015c.035-.002.07-.012.101-.028s.059-.039.081-.067.037-.06.045-.094c-.003-.09-.042-.176-.109-.239l-.833-1.036"/></g><path d="M196.927 178.366c-.128-.107-.248-.223-.36-.347a4.77 4.77 0 0 1-.791-1.191 5.4 5.4 0 0 1-.498-2.204 5.1 5.1 0 0 1 .853-2.856 20.74 20.74 0 0 1 2.369-2.767c.447-.483.848-1.006 1.199-1.561a4.88 4.88 0 0 0 .739-1.933 3.99 3.99 0 0 0-.332-2.129c-.324-.699-.736-1.354-1.227-1.951l-1.507-1.913c-.503-.681-.91-1.427-1.208-2.218a5.47 5.47 0 0 1-.336-2.504 4.25 4.25 0 0 1 .995-2.256 3.2 3.2 0 0 1 2.094-1.14 1.84 1.84 0 0 1 1.175.235 1.26 1.26 0 0 1 .427.434 1.24 1.24 0 0 1 .17.583 1.1 1.1 0 0 1-.19.556c-.112.165-.268.297-.45.382-.342.18-.742.218-1.113.108a3.47 3.47 0 0 1-1.635-1.247c-.755-.974-1.244-2.124-1.421-3.339a10.56 10.56 0 0 1 0-2.992 19.67 19.67 0 0 1 .407-2.219l.361-1.374.099-.356c.024-.094.043-.122.047-.117a.5.5 0 0 1 0 .122l-.08.361-.313 1.407a20.59 20.59 0 0 0-.365 2.209 10.75 10.75 0 0 0 .057 2.949c.179 1.179.657 2.294 1.388 3.241.38.535.915.943 1.535 1.168.317.091.656.058.948-.094a.91.91 0 0 0 .364-.309.88.88 0 0 0 .152-.451c-.006-.164-.052-.324-.134-.466s-.199-.262-.339-.35a1.64 1.64 0 0 0-1.029-.202c-.76.098-1.453.481-1.937 1.07-.517.602-.846 1.34-.948 2.124-.077.813.035 1.633.327 2.396.29.77.685 1.495 1.175 2.158l1.497 1.908c.502.614.924 1.289 1.256 2.008.319.703.437 1.48.341 2.246-.116.719-.382 1.405-.782 2.016-.367.571-.787 1.107-1.255 1.6a20.87 20.87 0 0 0-2.369 2.724c-.557.817-.857 1.778-.863 2.763.004.745.165 1.482.474 2.161a4.9 4.9 0 0 0 .739 1.201l.294.356z" class="B"/><g class="C"><path d="M199.609 117.401c-5.169-.685-8.978 1.998-10.674 6.096s-.867 8.883 1.288 12.752c1.199 2.157 2.985 4.22 5.42 4.717 1.985.404 4.084-.342 5.685-1.603s2.71-2.988 3.667-4.756c1.716-3.156 2.734-6.725 2.341-10.284-.346-3.119-3.577-6.444-7.708-6.908"/><path d="M196.458 140.629c-.189.262-.606 1.186-.753 1.477a.52.52 0 0 0-.084.213c-.011.076-.005.154.017.228a.37.37 0 0 0 .209.163c.088.027.182.02.265-.018a1.07 1.07 0 0 0 .408-.319.48.48 0 0 0 .215.3.49.49 0 0 0 .367.061.48.48 0 0 0 .303-.213c.069-.108.091-.239.062-.363.095.146.232.262.393.333.041.014.084.02.127.017a.31.31 0 0 0 .122-.035c.038-.02.071-.047.098-.081a.31.31 0 0 0 .056-.112.46.46 0 0 0-.133-.291l-1.023-1.271"/></g><defs ><path id="B" d="M72.728 131.385H34.187v-13.323h38.541v13.323zm-38.086-.469h37.613v-12.385H34.661l-.019 12.385z"/><path id="C" d="M46.41 135.222h14.635v.333a2.31 2.31 0 0 1-.687 1.641 2.36 2.36 0 0 1-1.658.68H48.75a2.36 2.36 0 0 1-1.658-.68 2.31 2.31 0 0 1-.687-1.641v-.333h.005z"/><path id="D" d="M112.88 79.302c-.042.099-.098.193-.166.277-.187.248-.405.472-.649.666-.931.69-2.068 1.051-3.231 1.027-.801-.013-1.597-.127-2.369-.338-.829-.211-1.686-.511-2.586-.816a16.03 16.03 0 0 0-2.843-.736c-1.047-.14-2.112-.062-3.127.23-2.089.572-3.984 1.623-5.951 1.731-.475.029-.952.002-1.421-.08a5.72 5.72 0 0 1-1.27-.413 11.43 11.43 0 0 1-2.023-1.229 21.49 21.49 0 0 0-2.805-1.876c-.715-.361-1.156-.469-1.147-.469a1.51 1.51 0 0 1 .317.075 5.34 5.34 0 0 1 .872.328c1.009.529 1.968 1.146 2.866 1.843.626.46 1.297.856 2.004 1.182.392.171.802.3 1.222.385a5.67 5.67 0 0 0 1.36.066c1.895-.113 3.767-1.154 5.903-1.74 1.045-.302 2.143-.382 3.222-.234a15.88 15.88 0 0 1 2.909.764l2.563.83a9.59 9.59 0 0 0 2.297.361c1.133.034 2.247-.295 3.175-.938.329-.261.623-.562.876-.896z"/><path id="E" d="M118.954 85.746l-.114-.033-.313-.117a9.69 9.69 0 0 0-1.246-.356c-1.549-.345-3.16-.313-4.695.094-.505.133-.998.308-1.473.525l-1.511.793a10.82 10.82 0 0 1-1.678.783c-.307.106-.625.183-.947.23-.337.037-.677.037-1.014 0-1.374-.169-2.601-.938-3.932-1.458-.668-.278-1.384-.428-2.109-.441-.748.017-1.489.147-2.198.385-1.454.469-2.809 1.144-4.264 1.463a7.34 7.34 0 0 1-4.179-.338c-1.184-.455-2.325-1.015-3.406-1.674-.938-.559-1.912-1.059-2.914-1.496-1.44-.676-3.062-.873-4.624-.563-.563.145-1.1.374-1.592.68l.09-.075c.089-.07.183-.134.279-.192a4.29 4.29 0 0 1 1.203-.502 6.26 6.26 0 0 1 2.056-.169c.914.08 1.81.303 2.653.661a24.96 24.96 0 0 1 2.947 1.491c1.077.643 2.209 1.191 3.383 1.637 1.291.493 2.698.602 4.051.314 1.421-.31 2.753-.99 4.231-1.459.732-.249 1.5-.382 2.274-.394a5.86 5.86 0 0 1 2.198.469c1.355.535 2.568 1.29 3.871 1.454.315.037.633.037.948 0s.617-.109.914-.211a11.01 11.01 0 0 0 1.649-.76l1.53-.783c.486-.218.99-.394 1.507-.525a9.84 9.84 0 0 1 4.766 0c.575.116 1.133.307 1.658.567z"/><path id="F" d="M110.672 94.937c-.06.062-.129.115-.203.16-.215.134-.453.228-.702.277-.921.153-1.868-.013-2.681-.469l-1.672-.872c-.644-.306-1.328-.52-2.033-.633a13.72 13.72 0 0 0-4.894.263l-4.875.999c-1.353.217-2.735.169-4.07-.141-.901-.206-1.746-.603-2.478-1.163-.2-.151-.384-.32-.55-.507a1.04 1.04 0 0 1-.166-.202s.256.258.772.633c.739.519 1.578.885 2.464 1.074 1.314.27 2.667.292 3.989.066 1.507-.211 3.127-.661 4.861-1.018a13.61 13.61 0 0 1 4.979-.244c.724.122 1.426.348 2.085.671l1.658.9c.777.461 1.687.654 2.587.549a3.06 3.06 0 0 0 .928-.342z"/><path id="G" d="M110.985 101.559c-.453-.379-.986-.654-1.559-.807a4.07 4.07 0 0 0-1.757-.074c-1.095.098-2.322.595-3.724 1.045a9.14 9.14 0 0 1-2.279.469c-.832.046-1.667-.006-2.487-.154-1.682-.291-3.222-.807-4.638-1.159-1.246-.337-2.532-.504-3.823-.497a7.21 7.21 0 0 0-2.539.497l-.867.413c-.014-.024.066-.056.204-.15a4.92 4.92 0 0 1 .621-.352 6.89 6.89 0 0 1 2.573-.581 13.83 13.83 0 0 1 3.89.469l4.624 1.134a10.71 10.71 0 0 0 2.407.113c.758-.051 1.506-.196 2.227-.431 1.388-.432 2.644-.938 3.79-.999a4.61 4.61 0 0 1 2.592.469c.291.14.547.343.748.595z"/><path id="H" d="M111.473 109.56s0 .023-.052.047c-.051.042-.107.078-.166.107-.224.123-.467.205-.72.244a3.4 3.4 0 0 1-1.203-.032 7.73 7.73 0 0 1-1.512-.502 11.26 11.26 0 0 0-3.918-1.027c-.798-.06-1.601-.027-2.392.098a21.23 21.23 0 0 0-2.516.6 23.5 23.5 0 0 1-2.535.643c-.803.149-1.618.22-2.435.211-1.383-.011-2.756-.234-4.07-.661-.883-.288-1.731-.671-2.53-1.14-.219-.126-.431-.264-.635-.413l-.208-.159c.005-.009.317.183.891.469a13.78 13.78 0 0 0 6.576 1.679 13.24 13.24 0 0 0 2.392-.221l2.511-.642a20.78 20.78 0 0 1 2.549-.605 10.53 10.53 0 0 1 2.445-.084c1.381.115 2.728.487 3.97 1.097a8.03 8.03 0 0 0 1.469.525 3.51 3.51 0 0 0 1.16.071c.325-.049.639-.152.929-.305z"/><path id="I" d="M72.335 88.527c.024 0 .076.136.246.342a2.28 2.28 0 0 0 .919.619 5.61 5.61 0 0 0 1.653.333c.717.024 1.423.183 2.08.469a4.05 4.05 0 0 1 1.473 1.543 10.25 10.25 0 0 0 .948 1.407c.339.389.766.695 1.246.891-.145.003-.288-.029-.417-.094a2.81 2.81 0 0 1-.948-.685c-.386-.433-.726-.905-1.014-1.407-.336-.59-.817-1.087-1.398-1.444-.63-.275-1.306-.434-1.995-.469-.583-.042-1.156-.176-1.696-.399a2.21 2.21 0 0 1-.948-.722.83.83 0 0 1-.152-.385z"/><path id="J" d="M78.162 97.995s-.085.127-.308.277a2.71 2.71 0 0 1-1.071.394 4.75 4.75 0 0 1-1.687-.066 17.77 17.77 0 0 1-1.957-.605 7.32 7.32 0 0 0-1.947-.441c-.539-.03-1.078.064-1.573.277-.451.202-.834.528-1.104.938a.86.86 0 0 1 .166-.38c.217-.316.515-.57.862-.736.514-.252 1.085-.371 1.658-.347a6.88 6.88 0 0 1 2.018.436l1.924.614a4.95 4.95 0 0 0 1.616.117 3.59 3.59 0 0 0 1.402-.478z"/><path id="K" d="M80.053 103.538c0 .024-.128-.033-.346-.056-.312-.019-.623.056-.891.216-.391.228-.717.551-.948.938-.284.445-.507.994-.853 1.528-.325.518-.803.924-1.369 1.164a3.17 3.17 0 0 1-1.45.239 2.59 2.59 0 0 1-.948-.239.87.87 0 0 1-.308-.193 4.71 4.71 0 0 0 1.27.263c.467.007.929-.087 1.355-.277a2.83 2.83 0 0 0 1.251-1.093c.332-.506.564-1.055.872-1.51.26-.423.634-.766 1.08-.989.302-.16.649-.214.985-.155.113.027.216.083.299.164z"/><path id="L" d="M83.412 109.081c-.044.375-.163.737-.351 1.065-.411.817-1.006 1.531-1.738 2.086s-1.584.937-2.488 1.117a2.94 2.94 0 0 1-1.132.056c0-.042.431-.056 1.094-.225a6.63 6.63 0 0 0 2.369-1.139 6.62 6.62 0 0 0 1.739-1.975l.507-.985z"/><path id="M" d="M122.545 89.732c.014.14-.016.281-.085.403-.171.344-.446.626-.787.807-.501.27-1.069.397-1.639.366-.635 0-1.312-.131-2.013-.131-1.207.011-2.384.379-3.378 1.055-.768.52-1.123.985-1.161.938a1.24 1.24 0 0 1 .237-.333c.244-.282.519-.537.819-.76a5.91 5.91 0 0 1 3.483-1.158c.734 0 1.421.136 2.018.15.533.039 1.067-.061 1.549-.291.324-.154.596-.399.782-.703.128-.188.156-.342.175-.342z"/><path id="N" d="M126.264 98.445c-.117-.075-.239-.142-.365-.202a1.64 1.64 0 0 0-1.089-.023 7.09 7.09 0 0 0-1.497.788c-.609.368-1.259.662-1.938.877a4.56 4.56 0 0 1-2.142.145 3.48 3.48 0 0 1-1.587-.741 2.47 2.47 0 0 1-.706-.938c-.04-.099-.072-.201-.094-.305-.009-.037-.009-.075 0-.112a3.21 3.21 0 0 0 .923 1.219c.444.338.964.564 1.517.656a4.48 4.48 0 0 0 2.027-.159 9.7 9.7 0 0 0 1.895-.835 6.75 6.75 0 0 1 1.564-.764c.392-.111.813-.074 1.179.103.242.141.313.286.313.291z"/><path id="O" d="M119.864 110.985a3.5 3.5 0 0 0-.185-1.247 2.58 2.58 0 0 0-.791-1.083 3.33 3.33 0 0 0-1.559-.577 6.99 6.99 0 0 1-.891-.211c-.277-.092-.539-.225-.777-.394-.398-.285-.723-.66-.947-1.093a2.88 2.88 0 0 1-.285-.938.83.83 0 0 1 0-.351c.09.415.235.817.432 1.195a3.01 3.01 0 0 0 .923.995 3.82 3.82 0 0 0 1.583.548c.599.064 1.17.286 1.653.643.38.314.663.729.815 1.196.105.31.142.64.109.966.003.122-.025.243-.08.351z"/><path id="P" d="M80.394 88.091c-.066 0-.175-.286-.246-.671s-.066-.699 0-.708.175.286.246.666.066.699 0 .713z"/><path id="Q" d="M84.866 81.647c0 .066-.336.192-.782.277s-.82.103-.834.038.341-.188.787-.277.815-.103.829-.037z"/><path id="R" d="M94.995 83.682c-.047.052-.346-.136-.673-.417s-.549-.553-.502-.605.341.141.668.422.507.553.507.6z"/><path id="S" d="M106.764 83.049c.052.047-.237.446-.64.891s-.777.769-.829.722.237-.441.644-.886.777-.769.825-.727z"/><path id="T" d="M114.254 83.509c-.038.056-.417-.145-.848-.446s-.744-.586-.701-.642.417.145.843.469.744.563.706.619z"/><path id="U" d="M90.93 98.065a1.78 1.78 0 0 1-1.066-.413c-.531-.356-.824-.792-.772-.835s.412.295.914.633.947.544.924.614z"/><path id="V" d="M98.918 97.428c.047.047-.27.436-.711.863s-.834.741-.881.694.27-.436.711-.868.834-.736.881-.689z"/><path id="W" d="M104.622 98.769c-.369-.084-.716-.244-1.018-.469-.531-.324-.948-.628-.891-.689.369.084.716.244 1.019.469.53.324.928.628.89.689z"/><path id="X" d="M109.924 97.301c.047.052-.119.258-.36.469s-.474.324-.521.272.118-.258.364-.469.474-.338.517-.272z"/><path id="Y" d="M107.313 90.379c-.061 0 .024-.436.294-.877s.597-.718.644-.675-.18.38-.431.797-.426.779-.507.755z"/><path id="Z" d="M101.216 89.089c-.047.052-.317-.122-.602-.385s-.474-.511-.431-.563.313.122.602.385.474.511.431.563z"/><path id="a" d="M92.627 90.623c.047.047-.142.3-.426.563s-.554.436-.602.385.147-.3.431-.563.54-.436.597-.385z"/><path id="b" d="M115.808 89.263c-.038.056-.332-.075-.658-.3s-.555-.446-.517-.502.332.08.659.3.549.441.516.502z"/><path id="c" d="M119.158 94.595a2.32 2.32 0 0 1-.242 1.018c-.194.539-.407.938-.474.938.005-.353.087-.7.242-1.018.18-.544.388-.961.474-.938z"/><path id="d" d="M117.736 104.495c-.061.023-.265-.328-.445-.793s-.28-.858-.218-.881.265.328.445.792.294.858.218.882z"/><path id="e" d="M114.657 111.304c-.071 0-.076-.38-.119-.834s-.099-.821-.033-.84.237.338.28.821-.067.853-.128.853z"/><path id="f" d="M107.602 104.326c.043.047-.203.342-.559.657s-.672.53-.72.469.204-.347.559-.662.673-.52.72-.464z"/><path id="g" d="M102.576 105.77c-.052.043-.36-.286-.687-.731s-.54-.835-.474-.877.36.291.687.736.516.835.474.872z"/><path id="h" d="M95.588 104.542c.052.047-.199.398-.564.783s-.692.666-.744.619.204-.399.564-.783.697-.661.744-.619z"/><path id="i" d="M90.504 105.78c-.057.037-.284-.211-.512-.549s-.36-.652-.303-.689.289.211.512.553.36.647.303.685z"/><path id="j" d="M90.395 113.405c-.047.047-.284-.108-.535-.342s-.412-.469-.365-.516.289.103.535.338.412.469.365.52z"/><path id="k" d="M95.967 112.627c.052.047-.104.295-.35.558s-.474.436-.531.394.109-.296.351-.558.507-.436.531-.394z"/><path id="l" d="M103.049 114.062c-.056.042-.45-.38-.881-.938-.297-.314-.53-.682-.687-1.083.052-.043.446.375.882.938.293.317.525.684.686 1.083z"/><path id="m" d="M108.683 112.594c.047.047-.28.441-.735.872s-.862.751-.909.704.284-.441.739-.877.857-.751.905-.699z"/><path id="n" d="M77.94 110.319c-.066 0-.09-.417-.047-.937s.128-.906.194-.901.09.418.052.938-.147.905-.199.9z"/><path id="o" d="M80.939 108.345c-.028.061-.346 0-.715-.178s-.64-.342-.611-.403.346 0 .711.178.644.342.616.403z"/><path id="p" d="M73.642 103.116c0 .066-.374.038-.801-.066s-.763-.234-.749-.3.374-.037.805.066.777.234.744.3z"/><path id="q" d="M76.585 101.925c.045-.356.17-.697.365-.999.265-.525.526-.938.588-.896-.045.357-.17.7-.365 1.004-.265.535-.526.938-.588.891z"/><path id="r" d="M71.397 92.41c.066-.023.275.408.583.896s.597.868.55.914-.436-.267-.758-.788-.441-.999-.374-1.022z"/><path id="s" d="M75.613 94.286c0 .07-.199.159-.426.314s-.393.314-.45.277.033-.295.313-.469.559-.188.564-.122z"/><path id="t" d="M90.39 78.528c-.061.033-.322-.333-.587-.816a2.2 2.2 0 0 1-.374-.938c.062-.033.327.333.587.816.197.279.326.6.374.938z"/><path id="u" d="M96.639 76.99c.038.056-.341.38-.848.722-.29.24-.627.417-.99.52-.038-.056.341-.38.853-.722s.948-.577.985-.52z"/><path id="v" d="M105.774 78.069c-.768-.265-1.471-.685-2.066-1.233.397.093.77.267 1.094.511.369.175.699.421.972.722z"/><path id="w" d="M109.872 76.601c.066 0 .057.408 0 .891s-.204.868-.27.853-.057-.408.023-.891.181-.854.247-.854z"/><path id="x" d="M103.49 18.14s4.354 23.828 7.301 23.72c3.79-.141 16.724-19.983 16.724-19.983L103.49 18.14z"/><path id="y" d="M156.533 23.866s8.58 22.679 11.456 22.041c3.714-.811 12.858-22.613 12.858-22.613l-24.314.572z"/><path id="z" d="M207.686 20.733s12.167 21.01 14.905 19.926c3.534-1.407 9.002-24.386 9.002-24.386l-23.907 4.46z"/></defs></svg>